<svg viewBox="0 0 293.99 170.001">
  <path d="M139.257,81.664a8.409,8.409,0,0,0-5.879-2.352c-5.356,0-8.1,3.919-8.1,8.1,0,4.311,2.743,7.969,8.1,7.969a7.8,7.8,0,0,0,5.486-2.09V88.2h-6.4V87.02h7.707v6.793a9.4,9.4,0,0,1-6.924,3.005c-6.139,0-9.406-4.311-9.406-9.275,0-5.748,3.788-9.406,9.406-9.406a9.506,9.506,0,0,1,6.663,2.743Z" transform="translate(-16.655 -10.508)"></path>
  <path d="M161.435,96.425h-1.829L153.335,89.5h-4.964v6.924h-1.437V78.137H154.9a5.669,5.669,0,0,1,6.009,5.616c0,3.005-1.96,5.617-5.879,5.617Zm-13.063-8.1h6.4c3.135,0,4.572-1.829,4.572-4.311A4.21,4.21,0,0,0,154.9,79.7h-6.531Z" transform="translate(-19.761 -10.508)"></path>
  <path d="M180.985,78.288V89.653c0,9.536-13.977,9.536-13.977,0V78.288h1.437V89.653a5.623,5.623,0,1,0,11.234,0V78.288Z" transform="translate(-22.46 -10.529)"></path>
  <path data-name="Trazado 52907" d="M188.519,90.155v6.271h-1.437V78.137h7.968c7.969,0,7.969,11.887,0,11.887h-6.531Zm0-10.581v9.406h6.531c6.009,0,6.009-9.406,0-9.406Z" transform="translate(-25.16 -10.508)"></path>
  <path d="M224.236,87.392c0,4.833-3.135,9.406-9.144,9.406s-9.144-4.573-9.144-9.406,3-9.406,9.144-9.406,9.144,4.442,9.144,9.406m-16.982,0c0,4.05,2.613,8.1,7.838,8.1s7.838-4.05,7.838-8.1c0-4.18-2.613-8.1-7.838-8.1-5.356,0-7.969,3.788-7.838,8.1" transform="translate(-27.697 -10.488)"></path>
  <path d="M145,140.017v-12.54H129.72v12.54h-5.879v-31.09h5.879V121.99H145V108.926h5.748v30.959H145Z" transform="translate(-16.655 -14.649)"></path>
  <path d="M191.637,124.521c-.131,7.969-4.964,16.067-15.938,16.067s-15.937-7.837-15.937-15.937,5.225-16.329,15.937-16.329c10.712-.131,15.938,8.1,15.938,16.2m-26.126.131c.131,5.094,2.873,10.581,10.189,10.581s10.059-5.486,10.19-10.581c.131-5.225-2.874-11.1-10.19-11.1s-10.319,5.879-10.189,11.1" transform="translate(-21.486 -14.568)"></path>
  <path d="M207.142,114.282h-9.8v-5.356h25.474v5.356h-9.8v25.734h-5.879Z" transform="translate(-26.54 -14.649)"></path>
  <path d="M259.23,108.926v17.766c0,9.144-5.617,13.847-13.455,13.847-7.446,0-13.716-4.572-13.716-13.847V108.926h5.748v17.766c0,5.617,3.135,8.492,7.968,8.492s7.577-3.266,7.577-8.492V108.926Z" transform="translate(-31.209 -14.649)"></path>
  <path d="M288.9,116.21c-1.045-1.829-4.05-3.4-7.315-3.4-4.311,0-6.4,1.829-6.4,4.18,0,2.743,3.136,3.4,6.924,3.918,6.4.784,12.54,2.482,12.54,9.928,0,6.923-6.14,9.928-13.063,9.928-6.4,0-11.234-1.96-13.455-7.577l4.7-2.744c1.306,3.4,4.964,4.965,8.752,4.965,3.658,0,7.185-1.307,7.185-4.7,0-2.873-3-4.18-7.185-4.572-6.271-.784-12.148-2.482-12.148-9.406,0-6.4,6.27-9.013,12.018-9.013,4.833,0,9.8,1.437,12.148,6.139Z" transform="translate(-36.06 -14.487)"></path>
  <path d="M325.36,134.159h-16.2l-2.612,5.879h-6.271l13.847-30.96h6.4l13.847,30.96h-6.4Zm-8.1-18.68-5.748,13.194h11.5Z" transform="translate(-40.384 -14.669)"></path>
  <path d="M124.021,63.027a5.429,5.429,0,0,1,5.638-5.513,5.182,5.182,0,0,1,3.866,1.506l-.5.512a4.548,4.548,0,0,0-3.339-1.289,4.784,4.784,0,1,0,0,9.567,4.564,4.564,0,0,0,3.339-1.3l.5.512a5.19,5.19,0,0,1-3.866,1.522,5.43,5.43,0,0,1-5.638-5.513" transform="translate(-16.679 -7.735)"></path>
  <path d="M136.6,63.027a5.655,5.655,0,1,1,5.653,5.513,5.442,5.442,0,0,1-5.653-5.513m10.5,0a4.854,4.854,0,1,0-4.846,4.783,4.695,4.695,0,0,0,4.846-4.783" transform="translate(-18.371 -7.735)"></path>
  <path d="M161.7,57.6V68.476h-.653l-7.408-9.444v9.444h-.793V57.6h.668l7.392,9.443V57.6Z" transform="translate(-20.556 -7.747)"></path>
  <path d="M81.552,84.169,99.238,64.214V57.059H54.644v9.958H83.955L67.082,86.3l-.394,10.936L70.873,95.2a11.958,11.958,0,0,1,5.686-1.168A14.052,14.052,0,1,1,62.5,108.078v-2.8H52v2.8a24.566,24.566,0,1,0,49.133,0c0-11.433-8.516-21.337-19.576-23.909" transform="translate(-6.993 -7.674)"></path>
  <path d="M133.207,152.758A81.144,81.144,0,0,1,95.5,169.811c-3.444.637-6.951.725-10.439,1.044a17.7,17.7,0,0,1-2.623.048l-2.627-.061-2.629-.061-1.315-.031-1.306-.154a77.671,77.671,0,0,1-10.386-1.655c-1.7-.427-3.453-.688-5.116-1.254l-5.005-1.662a40.783,40.783,0,0,1-4.883-1.986c-1.588-.753-3.253-1.36-4.78-2.235a82.057,82.057,0,0,1-42.8-57.522C-4.187,76.433,6.031,45.694,27.749,26.9A79,79,0,0,1,45.56,15.12a78.4,78.4,0,0,1,9.873-4.079l1.252-.463,1.293-.335,2.586-.664,2.584-.661a18.813,18.813,0,0,1,2.6-.559l5.267-.8a42.487,42.487,0,0,1,5.287-.55,82.032,82.032,0,0,1,10.61.111,77.945,77.945,0,0,1,20.617,4.335l-.563,1.769A83.372,83.372,0,0,0,86.764,10.2a78.508,78.508,0,0,0-10.172.434c-3.382.293-6.685,1.106-10.012,1.682A81.809,81.809,0,0,0,31.051,30.641a77.467,77.467,0,0,0-7.034,7.2c-1.069,1.293-2.3,2.459-3.253,3.843l-2.956,4.082a41.789,41.789,0,0,0-2.67,4.271l-1.278,2.173a16.642,16.642,0,0,0-1.185,2.224,74.787,74.787,0,0,0-3.969,9.27,78.287,78.287,0,0,0-4.36,19.69l-.227,5.062c-.016.845-.127,1.689-.067,2.533L4.2,93.521l.292,5.068.807,5.014a78.292,78.292,0,0,0,31.663,50.473,79.378,79.378,0,0,0,8.627,5.48c1.466.875,3.069,1.485,4.6,2.243a40.559,40.559,0,0,0,4.7,2.03l4.829,1.724c1.606.589,3.3.875,4.95,1.329a75.537,75.537,0,0,0,10.093,1.841l1.272.181,1.284.057,2.568.117,2.57.117a17.1,17.1,0,0,0,2.571.012c3.42-.24,6.869-.245,10.267-.8A80.185,80.185,0,0,0,132.9,152.376Z" transform="translate(0 -0.927)"></path>
  <path d="M137.78,18.192l-25.69-.284,8.975-6.763L119.639,0Z" transform="translate(-15.075 0)"></path>
  <path d="M96.575,185.219a1.76,1.76,0,1,1-1.76-1.76,1.759,1.759,0,0,1,1.76,1.76" transform="translate(-12.515 -24.673)"></path>
  <path d="M137.8,174.325a1.76,1.76,0,1,1-1.76-1.76,1.759,1.759,0,0,1,1.76,1.76" transform="translate(-18.059 -23.208)"></path>
  <path d="M55.47,174.325a1.76,1.76,0,1,1-1.76-1.76,1.759,1.759,0,0,1,1.76,1.76" transform="translate(-6.987 -23.208)"></path>
  <path d="M25.2,143.759a1.76,1.76,0,1,1-1.76-1.76,1.759,1.759,0,0,1,1.76,1.76" transform="translate(-2.916 -19.097)"></path>
  <path d="M13.931,102.453a1.76,1.76,0,1,1-1.76-1.76,1.759,1.759,0,0,1,1.76,1.76" transform="translate(-1.4 -13.542)"></path>
  <path d="M25.11,60.985a1.76,1.76,0,1,1-1.76-1.76,1.759,1.759,0,0,1,1.76,1.76" transform="translate(-2.904 -7.965)"></path>
  <path d="M55.452,30.616a1.76,1.76,0,1,1-1.76-1.76,1.76,1.76,0,0,1,1.76,1.76" transform="translate(-6.984 -3.881)"></path>
  <path d="M96.991,19.67a1.76,1.76,0,1,1-1.76-1.759,1.76,1.76,0,0,1,1.76,1.759" transform="translate(-12.571 -2.409)"></path>
  <path d="M112.238,67.828a4.883,4.883,0,0,0,.89-3.592h-2.464V57.051h6.3V63.21q0,4.174-1.847,6.33a10.353,10.353,0,0,1-5.749,3.044l-.822-2.394a8.165,8.165,0,0,0,3.7-2.362" transform="translate(-14.597 -7.673)"></path>
</svg>