<svg id="Componente_45_5" data-name="Componente 45 – 5" xmlns="http://www.w3.org/2000/svg" xmlns:xlink="http://www.w3.org/1999/xlink" width="37.281" height="33" viewBox="0 0 37.281 33">
  <defs>
    <clipPath id="clip-path">
      <rect id="Rectángulo_1107" data-name="Rectángulo 1107" width="37.281" height="33" fill="#00a79b"/>
    </clipPath>
  </defs>
  <g id="Grupo_6963" data-name="Grupo 6963" clip-path="url(#clip-path)">
    <path id="Trazado_52997" data-name="Trazado 52997" d="M25.933,33H.717A.7.7,0,0,1,0,32.324V.676A.7.7,0,0,1,.717,0H19.472a.74.74,0,0,1,.507.2L26.44,6.29a.657.657,0,0,1,.21.478V13.9a.718.718,0,0,1-1.434,0V7.047l-6.04-5.7H1.434v30.3H25.216v-7.6a.718.718,0,0,1,1.434,0v8.276a.7.7,0,0,1-.717.676" fill="#00a79b"/>
    <path id="Trazado_52998" data-name="Trazado 52998" d="M359.34,7.449h-6.46a.7.7,0,0,1-.717-.676V.682a.7.7,0,0,1,.717-.676.74.74,0,0,1,.506.2l6.46,6.091a.649.649,0,0,1,0,.956.739.739,0,0,1-.507.2M353.6,6.1h4.013L353.6,2.314Z" transform="translate(-333.407 -0.006)" fill="#00a79b"/>
    <path id="Trazado_52999" data-name="Trazado 52999" d="M98.2,196.847H81.6a.677.677,0,1,1,0-1.352H98.2a.677.677,0,1,1,0,1.352" transform="translate(-76.579 -185.678)" fill="#00a79b"/>
    <path id="Trazado_53000" data-name="Trazado 53000" d="M92.873,287.031H81.6a.677.677,0,1,1,0-1.352H92.873a.677.677,0,1,1,0,1.352" transform="translate(-76.579 -271.334)" fill="#00a79b"/>
    <path id="Trazado_53001" data-name="Trazado 53001" d="M92.038,377.131H81.6a.677.677,0,1,1,0-1.352H92.038a.677.677,0,1,1,0,1.352" transform="translate(-76.579 -356.909)" fill="#00a79b"/>
    <path id="Trazado_53002" data-name="Trazado 53002" d="M97.051,467.273H81.6a.677.677,0,1,1,0-1.352H97.051a.677.677,0,1,1,0,1.352" transform="translate(-76.58 -442.525)" fill="#00a79b"/>
    <path id="Trazado_53003" data-name="Trazado 53003" d="M98.2,557.415H81.6a.677.677,0,1,1,0-1.352H98.2a.677.677,0,1,1,0,1.352" transform="translate(-76.579 -528.14)" fill="#00a79b"/>
    <path id="Trazado_53004" data-name="Trazado 53004" d="M280.868,244.262a6.634,6.634,0,1,1,7.024-6.622,6.437,6.437,0,0,1-2.057,4.683,7.2,7.2,0,0,1-4.967,1.94m0-11.892a5.28,5.28,0,1,0,5.59,5.271,5.123,5.123,0,0,0-1.637-3.727,5.727,5.727,0,0,0-3.953-1.545Z" transform="translate(-259.26 -219.417)" fill="#00a79b"/>
    <path id="Trazado_53005" data-name="Trazado 53005" d="M460.7,419.94a.739.739,0,0,1-.507-.2l-2.913-2.749a.649.649,0,0,1,.026-.956.749.749,0,0,1,.988,0l2.406,2.27.839-.791-2.408-2.271a.649.649,0,0,1,.015-.956.749.749,0,0,1,1,0l2.913,2.748a.649.649,0,0,1,0,.956h0l-1.852,1.747a.739.739,0,0,1-.506.2" transform="translate(-432.743 -393.305)" fill="#00a79b"/>
    <path id="Trazado_53006" data-name="Trazado 53006" d="M507.246,466.744a3,3,0,0,1-2.074-.81l-5.462-5.15a.649.649,0,0,1,0-.956h0l3.133-2.954a.748.748,0,0,1,1.014,0h0l5.462,5.15a2.655,2.655,0,0,1,0,3.91A3.025,3.025,0,0,1,507.246,466.744Zm-6.015-6.438,4.954,4.672a1.564,1.564,0,0,0,2.12,0,1.357,1.357,0,0,0,0-2l-4.954-4.671Z" transform="translate(-472.898 -433.744)" fill="#00a79b"/>
  </g>
</svg>
