<svg id="Grupo_7356" data-name="Grupo 7356" xmlns="http://www.w3.org/2000/svg" xmlns:xlink="http://www.w3.org/1999/xlink" viewBox="0 0 37.748 33">

  <g id="Grupo_7328" data-name="Grupo 7328" clip-path="url(#clip-path)">
    <path id="Trazado_53435" data-name="Trazado 53435" d="M0,24.349a2.26,2.26,0,0,1,.911-1.808c.1-.088.213-.152.31-.238a.378.378,0,0,0,.065-.548.652.652,0,0,0-.111-.125A3.448,3.448,0,0,1,.27,20.3a2.176,2.176,0,0,1,.083-2.042,4.408,4.408,0,0,1,.853-1.1,1.191,1.191,0,0,0,.116-.122c.21-.253.231-.395.02-.642A5.45,5.45,0,0,1,.713,15.4,3.055,3.055,0,0,1,1.086,12.1a7.325,7.325,0,0,1,1.995-1.6c.6-.384,1.2-.757,1.8-1.135q1.23-.776,2.461-1.552Q9.353,6.543,11.37,5.283c.617-.386,1.237-.767,1.853-1.155.726-.457,1.45-.92,2.175-1.379q1.537-.972,3.075-1.943c.3-.19.593-.387.891-.579A1.517,1.517,0,0,1,20.655.077c.934.259,1.87.512,2.806.764.81.218,1.621.436,2.433.647,1.155.3,2.312.588,3.466.89.649.17,1.292.362,1.94.538.306.083.617.147.924.227.83.218,1.658.446,2.49.657.687.174,1.38.323,2.066.5a1.973,1.973,0,0,1,.566.229.684.684,0,0,1,.18,1.1,2.4,2.4,0,0,1-.361.349,1.8,1.8,0,0,0-.671,1.686,5.14,5.14,0,0,0,.8,2.072c.093.161.212.308.308.467a.657.657,0,0,1-.062.872,2.108,2.108,0,0,1-.383.321c-.2.141-.41.261-.6.4a1.462,1.462,0,0,0-.485,1.7,4.616,4.616,0,0,0,1.042,1.573c.163.18.34.349.485.542a.619.619,0,0,1-.037.866,2.462,2.462,0,0,1-.518.417,1.292,1.292,0,0,0-.646,1.378,4.215,4.215,0,0,0,.55,1.634c.229.363.43.742.646,1.113a.632.632,0,0,1-.086.907,3.548,3.548,0,0,1-.6.5c-.93.622-1.868,1.232-2.8,1.844-1.186.776-2.377,1.544-3.559,2.327-1.322.875-2.631,1.769-3.954,2.642-1,.657-2.006,1.294-3.008,1.943-.782.507-1.57,1.008-2.338,1.536a1.486,1.486,0,0,1-1.22.245c-.237-.052-.47-.12-.7-.18q-1.272-.33-2.545-.662c-.469-.123-.936-.257-1.4-.379-.938-.246-1.879-.483-2.816-.733-.775-.207-1.545-.432-2.32-.639-.468-.125-.943-.227-1.412-.349q-1.761-.457-3.519-.922c-.685-.181-1.376-.346-2.052-.556A2.886,2.886,0,0,1,2,27.814,9,9,0,0,1,.382,25.823,3.074,3.074,0,0,1,0,24.349m20.171-9.174a2.178,2.178,0,0,0,.375-.109,4.882,4.882,0,0,0,.53-.312c.561-.369,1.116-.747,1.677-1.114.656-.428,1.321-.842,1.974-1.274.933-.618,1.854-1.253,2.789-1.868,1.277-.84,2.564-1.665,3.844-2.5q1.568-1.026,3.127-2.065a1.217,1.217,0,0,0,.253-.215.262.262,0,0,0-.1-.417,1.374,1.374,0,0,0-.376-.1c-.807-.073-1.542-.429-2.332-.577-.548-.1-1.083-.278-1.624-.418-.271-.07-.542-.137-.814-.2-1.159-.283-2.292-.664-3.465-.9-.693-.139-1.369-.363-2.054-.545-.305-.082-.612-.158-.919-.234-.163-.04-.33-.064-.491-.111q-.967-.279-1.93-.567a.86.86,0,0,0-.748.1c-.488.31-.986.6-1.476.909-.426.266-.842.547-1.269.812-.68.424-1.367.836-2.047,1.261q-2.181,1.365-4.358,2.737c-1.721,1.082-3.418,2.2-5.177,3.22-.164.1-.335.21-.285.432.046.2.246.2.406.238l2.388.6c1.356.342,2.684.792,4.061,1.053.091.017.179.053.269.078.809.225,1.615.457,2.427.672,1.135.3,2.274.59,3.411.885.27.07.539.147.809.219.251.068.5.133.752.2.125.035.248.075.378.115M3.112,23.119a2.014,2.014,0,0,0-1.267.546.9.9,0,0,0-.27,1.021,3.212,3.212,0,0,0,.232.567,6.507,6.507,0,0,0,1.178,1.415,1.949,1.949,0,0,0,.823.458c.811.215,1.618.443,2.429.656s1.627.415,2.44.624q.65.167,1.3.341c1.279.342,2.557.69,3.837,1.028.74.2,1.483.373,2.224.563.506.13,1.01.268,1.514.4q1.136.3,2.271.609a1.258,1.258,0,0,0,1.069-.176c.561-.37,1.127-.731,1.687-1.1,1.43-.949,2.855-1.9,4.286-2.851q2.544-1.683,5.094-3.356,1.731-1.138,3.465-2.27A1.923,1.923,0,0,0,35.7,21.4a.394.394,0,0,0,.093-.463,1.33,1.33,0,0,0-.112-.193A4.624,4.624,0,0,1,35.1,19.3c-.036-.164-.058-.332-.1-.494-.082-.3-.286-.39-.547-.22q-1.008.657-2.008,1.326c-.807.538-1.61,1.082-2.419,1.617-1.136.75-2.277,1.494-3.415,2.242q-1.309.86-2.615,1.724-1.167.77-2.334,1.541c-.156.1-.32.193-.475.3a1.366,1.366,0,0,1-1.125.191c-.453-.111-.907-.22-1.359-.336-.668-.172-1.334-.354-2-.526s-1.34-.33-2.007-.508c-1.28-.341-2.557-.691-3.835-1.038-.378-.1-.752-.224-1.132-.316-1.379-.331-2.748-.7-4.115-1.073-.7-.194-1.409-.361-2.115-.538-.126-.031-.256-.047-.378-.069m17.106-2.551a1.366,1.366,0,0,0,.75-.293c.259-.183.51-.379.774-.554.7-.464,1.4-.918,2.106-1.378.717-.471,1.43-.946,2.149-1.415.75-.49,1.507-.968,2.254-1.462s1.514-1.023,2.275-1.528c.622-.412,1.253-.81,1.877-1.219q1.452-.95,2.9-1.9a2.651,2.651,0,0,0,.317-.229.469.469,0,0,0,.1-.653,1.876,1.876,0,0,1-.262-.425A6.553,6.553,0,0,1,35.049,8a.67.67,0,0,0-.028-.165.279.279,0,0,0-.426-.205,1.889,1.889,0,0,0-.188.121c-.4.272-.8.551-1.2.816-1.326.869-2.656,1.731-3.981,2.6-.936.614-1.866,1.235-2.8,1.853-.311.206-.625.407-.936.612q-1.052.692-2.1,1.386-.84.556-1.677,1.116c-.186.124-.372.247-.552.38a1.213,1.213,0,0,1-1.167.15c-.622-.2-1.253-.363-1.885-.525-.759-.195-1.525-.364-2.284-.559-1.066-.275-2.108-.641-3.195-.836a2.169,2.169,0,0,1-.215-.064c-.537-.156-1.072-.319-1.612-.465-.99-.268-2-.451-2.979-.771-.141-.046-.292-.061-.437-.1s-.288-.077-.432-.116c-.323-.088-.646-.179-.97-.263-.289-.075-.581-.137-.87-.215-.486-.131-.973-.262-1.456-.408a.931.931,0,0,0-.934.2,2.139,2.139,0,0,0-.854,1.335.877.877,0,0,0,.038.547,3.717,3.717,0,0,0,.986,1.409A.706.706,0,0,0,3.122,16c.438.157.874.326,1.323.448.738.2,1.49.351,2.227.556.934.259,1.858.559,2.812.745.182.036.359.1.539.148.648.175,1.3.352,1.946.522.74.193,1.483.377,2.224.569q1.273.33,2.543.667c.2.052.4.108.594.161q1.324.354,2.648.706c.09.024.182.036.241.047m-17.059-2.9a1.827,1.827,0,0,0-.419.168,5.172,5.172,0,0,0-.646.534,1.463,1.463,0,0,0-.263,1.791,3.014,3.014,0,0,0,.309.466,2.81,2.81,0,0,0,1.5,1.018c1.413.347,2.816.734,4.224,1.105q.92.243,1.838.491l2.052.554c.631.169,1.261.343,1.894.505.759.194,1.523.37,2.28.57,1.3.343,2.6.689,3.89,1.052a1.169,1.169,0,0,0,1.058-.179c.335-.235.677-.461,1.019-.685q1.872-1.228,3.745-2.454,1.077-.706,2.151-1.416c.841-.555,1.679-1.114,2.521-1.666.609-.4,1.225-.786,1.834-1.184q1.405-.919,2.8-1.847c.186-.124.366-.258.54-.4a.332.332,0,0,0,.088-.493,4.108,4.108,0,0,0-.247-.373,5.023,5.023,0,0,1-.7-1.392c-.166-.524-.335-.575-.809-.261q-1.19.788-2.38,1.576-1.751,1.157-3.5,2.311c-.748.493-1.5.982-2.246,1.476q-1.145.755-2.287,1.515c-.622.413-1.238.833-1.864,1.24a8.134,8.134,0,0,1-.73.411.781.781,0,0,1-.6.049c-.893-.27-1.8-.485-2.7-.712-1.61-.406-3.208-.859-4.813-1.283-.847-.224-1.7-.422-2.549-.645-1.137-.3-2.269-.616-3.4-.92-.451-.121-.906-.224-1.357-.345-.595-.159-1.187-.329-1.781-.491-.125-.034-.256-.052-.436-.087" transform="translate(0 0)" fill="#00a79b"/>
    <path id="Trazado_53436" data-name="Trazado 53436" d="M103.6,23.176c-.348-.061-.7-.1-1.043-.188-.686-.172-1.364-.379-2.049-.553-.7-.179-1.416-.328-2.121-.5-.578-.143-1.151-.308-1.729-.455-.415-.106-.834-.2-1.25-.3s-.83-.213-1.244-.323a.849.849,0,0,1-.5-.338.622.622,0,0,1,.036-.82,1.537,1.537,0,0,1,.378-.327c.73-.41,1.469-.8,2.2-1.208.342-.189.672-.4,1.018-.585.246-.13.507-.233.764-.34a1.868,1.868,0,0,1,1.153-.084q.845.189,1.687.392,1.631.392,3.26.792c.96.235,1.918.476,2.877.713.326.081.651.162.977.24a.9.9,0,0,1,.634.5.529.529,0,0,1-.067.627,2.455,2.455,0,0,1-.508.43c-.844.512-1.7,1.008-2.547,1.511-.336.2-.668.406-1.009.6a1.757,1.757,0,0,1-.921.218m-.19-1.57a1.25,1.25,0,0,0,.776-.186c.349-.215.709-.412,1.064-.618a2.1,2.1,0,0,0,.284-.175.25.25,0,0,0-.055-.419,1.593,1.593,0,0,0-.32-.094c-.309-.069-.622-.124-.93-.2q-2.5-.614-5-1.236c-.073-.018-.145-.036-.217-.057a.725.725,0,0,0-.643.1,11.91,11.91,0,0,1-1.326.72,1.425,1.425,0,0,0-.3.237.179.179,0,0,0,.034.249.98.98,0,0,0,.252.113c1.1.273,2.212.541,3.317.814.887.219,1.773.446,2.66.667.162.041.327.073.407.09" transform="translate(-77.207 -14.116)" fill="#00a79b"/>
  </g>
</svg>
