<svg id="Componente_44_7" data-name="Componente 44 – 7" xmlns="http://www.w3.org/2000/svg" xmlns:xlink="http://www.w3.org/1999/xlink" viewBox="0 0 43.499 33">

  <g id="Grupo_6969" data-name="Grupo 6969" clip-path="url(#clip-path)">
    <path id="Trazado_53010" data-name="Trazado 53010" d="M3.959,24.844l6.28-5.076a2.294,2.294,0,0,0,.58-.64l.412.325L10.1,23.993a2.141,2.141,0,0,0,.3,1.71,2.385,2.385,0,0,0,1.494,1.009,2.559,2.559,0,0,0,.549.06,2.49,2.49,0,0,0,1.264-.343,2.26,2.26,0,0,0,1.07-1.408l1.465-5.893a2.18,2.18,0,0,0-.8-2.248L12.307,14.4l.615-2.025,1.192.821a2.522,2.522,0,0,0,1.842.427l4.053-.642a2.4,2.4,0,0,0,1.558-.917,2.151,2.151,0,0,0,.415-1.688,2.392,2.392,0,0,0-2.762-1.86h0L16.161,9,12.972,6.8a2.492,2.492,0,0,0-1.784-.411,2.41,2.41,0,0,0-1.57.9,2.206,2.206,0,0,0-.375.725c-.42,1.406-.885,2.947-1.335,4.438-.433,1.435-.88,2.917-1.288,4.282L.839,21.407A2.176,2.176,0,0,0,.576,24.6a2.5,2.5,0,0,0,3.383.248M1.723,22.38l5.937-4.8a.639.639,0,0,0,.212-.313C8.3,15.854,8.763,14.3,9.216,12.8s.915-3.033,1.336-4.441a.955.955,0,0,1,.163-.315,1.046,1.046,0,0,1,.68-.39,1.082,1.082,0,0,1,.774.179l3.421,2.358a.71.71,0,0,0,.514.114l3.341-.529a1.037,1.037,0,0,1,1.2.807.931.931,0,0,1-.18.732,1.045,1.045,0,0,1-.677.4l-4.053.642a1.077,1.077,0,0,1-.8-.187l-.01-.007L12.939,10.8a.714.714,0,0,0-.622-.089.659.659,0,0,0-.433.43l-1.006,3.308a.619.619,0,0,0,.217.668l3.478,2.749a.945.945,0,0,1,.346.975L13.454,24.73a.981.981,0,0,1-.464.611,1.09,1.09,0,0,1-.787.123,1.036,1.036,0,0,1-.648-.438.926.926,0,0,1-.13-.741l1.224-4.922a.62.62,0,0,0-.225-.637l-1.479-1.169a.706.706,0,0,0-.437-.15.727.727,0,0,0-.2.028.66.66,0,0,0-.454.439l-.119.4a.969.969,0,0,1-.353.5l-.02.015L3.075,23.87a1.085,1.085,0,0,1-1.466-.108.943.943,0,0,1,.114-1.382m41.34-8.44-1.444-.524a8.951,8.951,0,0,0-.914-2.08L41.334,10a.614.614,0,0,0-.141-.713L39.149,7.362a.711.711,0,0,0-.757-.133l-1.415.592a10.109,10.109,0,0,0-2.205-.862L34.217,5.6a.68.68,0,0,0-.635-.411H30.691a.681.681,0,0,0-.635.411L29.5,6.96a10.116,10.116,0,0,0-2.205.862L25.88,7.229a.711.711,0,0,0-.757.133L23.079,9.29a.614.614,0,0,0-.141.713l.628,1.334a8.925,8.925,0,0,0-.914,2.079l-1.444.524a.643.643,0,0,0-.436.6v2.726a.644.644,0,0,0,.436.6l1.444.524a8.943,8.943,0,0,0,.914,2.08L22.939,21.8a.614.614,0,0,0,.141.713l2.045,1.928a.711.711,0,0,0,.757.133l1.415-.592a10.109,10.109,0,0,0,2.205.862l.556,1.362a.679.679,0,0,0,.635.411h2.891a.68.68,0,0,0,.635-.411l.556-1.361a10.125,10.125,0,0,0,2.206-.862l1.414.592a.71.71,0,0,0,.757-.133l2.045-1.928a.614.614,0,0,0,.141-.713l-.628-1.334a8.918,8.918,0,0,0,.914-2.079l1.444-.524a.643.643,0,0,0,.436-.6V14.539a.643.643,0,0,0-.436-.6m-.924,2.884L40.8,17.31a.654.654,0,0,0-.417.45,7.7,7.7,0,0,1-1.024,2.33.609.609,0,0,0-.043.6l.581,1.234-1.385,1.306-1.308-.548a.716.716,0,0,0-.632.04,8.722,8.722,0,0,1-2.471.966.67.67,0,0,0-.477.393l-.514,1.258H31.157l-.514-1.259a.669.669,0,0,0-.477-.393,8.72,8.72,0,0,1-2.471-.966.716.716,0,0,0-.632-.04l-1.308.548-1.385-1.306.581-1.233a.609.609,0,0,0-.043-.6,7.7,7.7,0,0,1-1.025-2.33.655.655,0,0,0-.417-.45l-1.335-.485V14.979l1.335-.484a.654.654,0,0,0,.417-.45,7.694,7.694,0,0,1,1.024-2.33.609.609,0,0,0,.043-.6L24.37,9.885,25.755,8.58l1.308.548a.716.716,0,0,0,.632-.04,8.711,8.711,0,0,1,2.471-.966.669.669,0,0,0,.477-.393l.514-1.259h1.958l.514,1.259a.668.668,0,0,0,.477.393,8.72,8.72,0,0,1,2.471.966.716.716,0,0,0,.632.04l1.308-.548L39.9,9.885l-.581,1.233a.609.609,0,0,0,.043.6,7.706,7.706,0,0,1,1.025,2.33.653.653,0,0,0,.417.45l1.335.484v1.847Zm-10-6.735A6,6,0,0,0,25.973,15.9a6,6,0,0,0,6.164,5.811A6,6,0,0,0,38.3,15.9a6,6,0,0,0-6.164-5.811m0,10.341a4.678,4.678,0,0,1-4.8-4.53,4.812,4.812,0,0,1,9.608,0,4.678,4.678,0,0,1-4.8,4.53M14.62,6.727a3.474,3.474,0,0,0,3.567-3.363A3.474,3.474,0,0,0,14.62,0a3.473,3.473,0,0,0-3.567,3.363A3.474,3.474,0,0,0,14.62,6.727m0-5.445a2.15,2.15,0,0,1,2.208,2.082,2.212,2.212,0,0,1-4.415,0A2.15,2.15,0,0,1,14.62,1.282" transform="translate(0)" fill="#00a79b"/>
    <path id="Trazado_53011" data-name="Trazado 53011" d="M44.24,487.537H4.018a1.521,1.521,0,0,0-1.562,1.473V490.5a1.521,1.521,0,0,0,1.562,1.473H44.24A1.521,1.521,0,0,0,45.8,490.5V489.01a1.521,1.521,0,0,0-1.562-1.473m.2,2.962a.2.2,0,0,1-.2.191H4.018a.2.2,0,0,1-.2-.191V489.01a.2.2,0,0,1,.2-.191H44.24a.2.2,0,0,1,.2.191Z" transform="translate(-2.303 -458.972)" fill="#00a79b"/>
  </g>
</svg>
