<svg id="Grupo_7381" data-name="Grupo 7381" xmlns="http://www.w3.org/2000/svg" xmlns:xlink="http://www.w3.org/1999/xlink" viewBox="0 0 57.068 33">
  <defs>
    <clipPath id="clip-path">
      <rect id="Rectángulo_1548" data-name="Rectángulo 1548" width="57.068" height="33" fill="#00a79b"/>
    </clipPath>
  </defs>
  <g id="Grupo_7380" data-name="Grupo 7380" clip-path="url(#clip-path)">
    <path id="Trazado_53476" data-name="Trazado 53476" d="M119.593,74.253a1.632,1.632,0,0,0-1.141-.456,1.5,1.5,0,0,0-1.572,1.572,1.469,1.469,0,0,0,1.572,1.547,1.515,1.515,0,0,0,1.065-.406v-.989h-1.243v-.228h1.5v1.319a1.824,1.824,0,0,1-1.344.583,1.813,1.813,0,1,1,0-3.626,1.846,1.846,0,0,1,1.293.532Z" transform="translate(-95.794 -60.44)" fill="#00a79b"/>
    <path id="Trazado_53477" data-name="Trazado 53477" d="M141.158,77.118H140.8l-1.217-1.344h-.964v1.344h-.279v-3.55h1.547a1.1,1.1,0,0,1,1.166,1.09,1.051,1.051,0,0,1-1.141,1.09Zm-2.536-1.572h1.243a.788.788,0,0,0,.888-.837.817.817,0,0,0-.862-.837h-1.268Z" transform="translate(-113.656 -60.44)" fill="#00a79b"/>
    <path id="Trazado_53478" data-name="Trazado 53478" d="M159.956,73.71v2.206a1.357,1.357,0,1,1-2.713,0V73.71h.279v2.206a1.092,1.092,0,1,0,2.181,0V73.71Z" transform="translate(-129.184 -60.557)" fill="#00a79b"/>
    <path id="Trazado_53479" data-name="Trazado 53479" d="M176.422,75.9v1.217h-.279v-3.55h1.547a1.154,1.154,0,1,1,0,2.307h-1.268Zm0-2.054v1.826h1.268a.914.914,0,0,0,0-1.826Z" transform="translate(-144.711 -60.44)" fill="#00a79b"/>
    <path id="Trazado_53480" data-name="Trazado 53480" d="M197.456,75.251a1.776,1.776,0,1,1-1.775-1.826,1.7,1.7,0,0,1,1.775,1.826m-3.3,0a1.522,1.522,0,1,0,1.521-1.572,1.435,1.435,0,0,0-1.521,1.572" transform="translate(-159.305 -60.323)" fill="#00a79b"/>
    <path id="Trazado_53481" data-name="Trazado 53481" d="M120.709,108.592v-2.434h-2.967v2.434H116.6v-6.035h1.141v2.536h2.967v-2.536h1.116v6.01h-1.116Z" transform="translate(-95.794 -84.256)" fill="#00a79b"/>
    <path id="Trazado_53482" data-name="Trazado 53482" d="M156.608,105.132a2.967,2.967,0,0,1-3.094,3.119,2.921,2.921,0,0,1-3.094-3.094,3.008,3.008,0,0,1,3.094-3.17,2.975,2.975,0,0,1,3.094,3.144m-5.072.025a1.979,1.979,0,1,0,3.956,0,1.985,1.985,0,1,0-3.956,0" transform="translate(-123.579 -83.788)" fill="#00a79b"/>
    <path id="Trazado_53483" data-name="Trazado 53483" d="M187.707,103.6h-1.9v-1.04h4.945v1.04h-1.9v5h-1.141Z" transform="translate(-152.65 -84.256)" fill="#00a79b"/>
    <path id="Trazado_53484" data-name="Trazado 53484" d="M223.763,102.557v3.449a2.445,2.445,0,0,1-2.612,2.688,2.506,2.506,0,0,1-2.663-2.688v-3.449H219.6v3.449a1.457,1.457,0,0,0,1.547,1.648c.938,0,1.471-.634,1.471-1.648v-3.449Z" transform="translate(-179.501 -84.256)" fill="#00a79b"/>
    <path id="Trazado_53485" data-name="Trazado 53485" d="M256.484,103.068a1.7,1.7,0,0,0-1.42-.659c-.837,0-1.242.355-1.242.812,0,.532.609.659,1.344.761,1.243.152,2.434.482,2.434,1.927,0,1.344-1.192,1.927-2.536,1.927a2.471,2.471,0,0,1-2.612-1.471l.913-.533a1.718,1.718,0,0,0,1.7.964c.71,0,1.395-.254,1.395-.913,0-.558-.583-.812-1.395-.888-1.217-.152-2.358-.482-2.358-1.826,0-1.243,1.217-1.75,2.333-1.75a2.448,2.448,0,0,1,2.358,1.192Z" transform="translate(-207.403 -83.322)" fill="#00a79b"/>
    <path id="Trazado_53486" data-name="Trazado 53486" d="M287.589,107.568h-3.144l-.507,1.141H282.72l2.688-6.01h1.243l2.688,6.01H288.1Zm-1.572-3.626L284.9,106.5h2.232Z" transform="translate(-232.27 -84.373)" fill="#00a79b"/>
    <path id="Trazado_53487" data-name="Trazado 53487" d="M116.772,55.213a1.055,1.055,0,0,1,1.1-1.071,1.007,1.007,0,0,1,.751.293l-.1.1a.884.884,0,0,0-.649-.25.929.929,0,1,0,0,1.859.886.886,0,0,0,.649-.254l.1.1a1.009,1.009,0,0,1-.751.3,1.055,1.055,0,0,1-1.1-1.071" transform="translate(-95.935 -44.481)" fill="#00a79b"/>
    <path id="Trazado_53488" data-name="Trazado 53488" d="M128.62,55.213a1.1,1.1,0,1,1,1.1,1.071,1.057,1.057,0,0,1-1.1-1.071m2.039,0a.943.943,0,1,0-.941.929.912.912,0,0,0,.941-.929" transform="translate(-105.668 -44.481)" fill="#00a79b"/>
    <path id="Trazado_53489" data-name="Trazado 53489" d="M145.635,54.227v2.112h-.127L144.07,54.5v1.834h-.154V54.227h.13l1.436,1.834V54.227Z" transform="translate(-118.235 -44.55)" fill="#00a79b"/>
    <path id="Trazado_53490" data-name="Trazado 53490" d="M54.692,58.985l3.433-3.873V53.722H49.468v1.933h5.69L51.883,59.4l-.076,2.123.812-.4a2.321,2.321,0,0,1,1.1-.227,2.728,2.728,0,1,1-2.728,2.727v-.543h-2.04v.543a4.769,4.769,0,1,0,9.538,0,4.876,4.876,0,0,0-3.8-4.641" transform="translate(-40.218 -44.136)" fill="#00a79b"/>
    <path id="Trazado_53491" data-name="Trazado 53491" d="M25.857,34.8a15.751,15.751,0,0,1-7.319,3.31c-.668.124-1.349.141-2.026.2a3.439,3.439,0,0,1-.509.009l-.51-.012-.51-.012-.255-.006-.253-.03a15.08,15.08,0,0,1-2.016-.321c-.33-.083-.67-.134-.993-.243l-.972-.323a7.913,7.913,0,0,1-.948-.386c-.308-.146-.632-.264-.928-.434A16.041,16.041,0,0,1,5.386,10.374,16.178,16.178,0,0,1,10.76,7.295L11,7.2l.251-.065.5-.129.5-.128a3.619,3.619,0,0,1,.505-.109l1.022-.154a8.249,8.249,0,0,1,1.026-.107,15.894,15.894,0,0,1,2.06.022,15.129,15.129,0,0,1,4,.842l-.109.343a16.181,16.181,0,0,0-3.922-.587,15.251,15.251,0,0,0-1.974.084c-.656.057-1.3.215-1.943.326a15.882,15.882,0,0,0-6.9,3.557,15.089,15.089,0,0,0-1.365,1.4c-.207.251-.446.477-.631.746l-.574.792a8.075,8.075,0,0,0-.518.829l-.248.422a3.259,3.259,0,0,0-.23.431,14.55,14.55,0,0,0-.77,1.8A15.185,15.185,0,0,0,.843,21.34L.8,22.322c0,.164-.025.328-.013.492l.028.491.057.984.157.973a15.2,15.2,0,0,0,6.146,9.8,15.438,15.438,0,0,0,1.675,1.064c.284.17.6.288.893.435a7.855,7.855,0,0,0,.912.394l.937.335c.312.114.641.17.961.258a14.7,14.7,0,0,0,1.959.357l.247.035.249.011.5.022L16,38a3.326,3.326,0,0,0,.5,0c.664-.046,1.333-.047,1.993-.154a15.566,15.566,0,0,0,7.3-3.113Z" transform="translate(0 -5.332)" fill="#00a79b"/>
    <path id="Trazado_53492" data-name="Trazado 53492" d="M110.523,3.532l-4.987-.055,1.742-1.313L107,0Z" transform="translate(-86.704 0)" fill="#00a79b"/>
    <path id="Trazado_53493" data-name="Trazado 53493" d="M88.3,173.074a.342.342,0,1,1-.342-.342.342.342,0,0,1,.342.342" transform="translate(-71.981 -141.909)" fill="#00a79b"/>
    <path id="Trazado_53494" data-name="Trazado 53494" d="M127.115,162.817a.342.342,0,1,1-.342-.342.342.342,0,0,1,.342.342" transform="translate(-103.871 -133.482)" fill="#00a79b"/>
    <path id="Trazado_53495" data-name="Trazado 53495" d="M49.6,162.817a.342.342,0,1,1-.342-.342.342.342,0,0,1,.342.342" transform="translate(-40.186 -133.482)" fill="#00a79b"/>
    <path id="Trazado_53496" data-name="Trazado 53496" d="M21.1,134.038a.342.342,0,1,1-.342-.342.342.342,0,0,1,.342.342" transform="translate(-16.774 -109.839)" fill="#00a79b"/>
    <path id="Trazado_53497" data-name="Trazado 53497" d="M10.486,95.147a.342.342,0,1,1-.342-.342.342.342,0,0,1,.342.342" transform="translate(-8.054 -77.888)" fill="#00a79b"/>
    <path id="Trazado_53498" data-name="Trazado 53498" d="M21.011,56.1a.342.342,0,1,1-.342-.342.342.342,0,0,1,.342.342" transform="translate(-16.701 -45.812)" fill="#00a79b"/>
    <path id="Trazado_53499" data-name="Trazado 53499" d="M49.579,27.51a.342.342,0,1,1-.342-.342.342.342,0,0,1,.342.342" transform="translate(-40.171 -22.32)" fill="#00a79b"/>
    <path id="Trazado_53500" data-name="Trazado 53500" d="M88.69,17.2a.342.342,0,1,1-.342-.342.342.342,0,0,1,.342.342" transform="translate(-72.303 -13.854)" fill="#00a79b"/>
    <path id="Trazado_53501" data-name="Trazado 53501" d="M102.619,55.806a.949.949,0,0,0,.173-.7h-.478V53.714h1.222v1.2a1.841,1.841,0,0,1-.358,1.229,2.009,2.009,0,0,1-1.116.591l-.16-.465a1.583,1.583,0,0,0,.718-.458" transform="translate(-83.717 -44.129)" fill="#00a79b"/>
  </g>
</svg>
