<svg xmlns="http://www.w3.org/2000/svg" xmlns:xlink="http://www.w3.org/1999/xlink" width="38.59" height="35" viewBox="0 0 38.59 35">
  <defs>
    <clipPath id="clip-path">
      <rect id="Rectángulo_1358" data-name="Rectángulo 1358" width="38.59" height="35" fill="#00a79b" stroke="#00a79b" stroke-width="1"/>
    </clipPath>
  </defs>
  <g id="Grupo_7357" data-name="Grupo 7357" transform="translate(3 2)">
    <g id="Grupo_7262" data-name="Grupo 7262" transform="translate(-3 -2)" clip-path="url(#clip-path)">
      <path id="Trazado_53433" data-name="Trazado 53433" d="M32.043,3.678l-.288-.288A9.806,9.806,0,0,0,24.663.5a10.145,10.145,0,0,0-6.62,2.544l-.3.269-.3-.268a10.148,10.148,0,0,0-13.807.44l-.192.192a10.027,10.027,0,0,0,0,14.181L5.88,20.3l-.688.758A2.294,2.294,0,0,0,6.973,24.9l.518-.017-.045.516A2.264,2.264,0,0,0,9.7,27.845a2.288,2.288,0,0,0,.4-.034l.512-.088.026.519a2.232,2.232,0,0,0,2.226,2.121,2.256,2.256,0,0,0,.6-.081l.507-.14.07.521a2.288,2.288,0,0,0,2.233,1.97,2.291,2.291,0,0,0,1.645-.665L30.545,19.352a.2.2,0,0,0,.03-.025l1.468-1.469a10.026,10.026,0,0,0,0-14.18M3.767,17.528a9.559,9.559,0,0,1,0-13.52l.192-.192a9.677,9.677,0,0,1,13.6-.012c.211.181,3.2,2.732,4.792,4.088a2.064,2.064,0,0,1,.73,1.489c0,.034,0,.067,0,.1a2.062,2.062,0,0,1-.59,1.45,2.1,2.1,0,0,1-2.83.148L16.75,8.646a.234.234,0,0,0-.323.023L6.194,19.956Zm27.946,0L30.29,18.952a.21.21,0,0,0-.032.027L17.584,31.635a1.84,1.84,0,0,1-2.1.336,1.82,1.82,0,0,1-.988-1.762,1.845,1.845,0,0,1,.469-1.072l5.071-5.546a.233.233,0,1,0-.345-.315l-5.527,6.045a1.763,1.763,0,0,1-2.6-2.379l5.757-6.217a.234.234,0,0,0-.011-.331.234.234,0,0,0-.33.012l-5.962,6.4a1.791,1.791,0,0,1-2.631-2.431l6.063-6.615a.234.234,0,1,0-.344-.316L8.24,23.838a1.828,1.828,0,0,1-2.7-2.464L16.622,9.149l2.745,2.29a2.552,2.552,0,0,0,3.29-3.9L18.076,3.631l.41-.35A9.752,9.752,0,0,1,24.7.968h.028a9.411,9.411,0,0,1,6.7,2.752l.288.289a9.559,9.559,0,0,1,0,13.52" transform="translate(1.555 0.934)" fill="#00a79b" stroke="#00a79b" stroke-width="1"/>
      <path id="Trazado_53434" data-name="Trazado 53434" d="M16,32.518h-.041a2.481,2.481,0,0,1-2.421-2.138l-.041-.3-.294.081a2.447,2.447,0,0,1-.652.088,2.424,2.424,0,0,1-2.419-2.3l-.015-.3-.3.051a2.475,2.475,0,0,1-2.133-.654,2.442,2.442,0,0,1-.741-1.969l.026-.3-.3.01a2.487,2.487,0,0,1-1.93-4.157L5.307,20,2.993,17.688a10.221,10.221,0,0,1,0-14.454l.192-.192a10.342,10.342,0,0,1,14.071-.449l.176.155.176-.155A10.338,10.338,0,0,1,24.355,0a9.974,9.974,0,0,1,7.231,2.945l.288.288a10.219,10.219,0,0,1,0,14.453L30.4,19.157a.407.407,0,0,1-.042.036L17.743,31.8A2.484,2.484,0,0,1,16,32.518m-2.179-2.93.1.74a2.094,2.094,0,0,0,3.55,1.194L31.6,17.414a9.833,9.833,0,0,0,0-13.907h0l-.288-.288A9.587,9.587,0,0,0,24.359.387a9.953,9.953,0,0,0-6.494,2.5l-.431.381L17,2.884a9.955,9.955,0,0,0-13.543.432l-.192.192a9.835,9.835,0,0,0,0,13.908L5.84,19.988l-.811.895a2.1,2.1,0,0,0,.071,2.9,2.123,2.123,0,0,0,1.56.613L7.4,24.37l-.064.733a2.058,2.058,0,0,0,.625,1.659,2.083,2.083,0,0,0,1.8.551l.727-.126.036.737a2.034,2.034,0,0,0,.589,1.335,2.069,2.069,0,0,0,1.993.528Zm2.163,2.459a1.987,1.987,0,0,1-.9-.212,2.013,2.013,0,0,1-1.093-1.951,2.039,2.039,0,0,1,.519-1.185l5.071-5.548,0-.057-.056,0L14,29.144a1.957,1.957,0,0,1-2.888-2.64l5.758-6.218.13-.2-.131.142-.2-.13.141.132-5.962,6.4a1.984,1.984,0,0,1-2.915-2.693l6.064-6.615a.04.04,0,1,0-.06-.054L8.076,23.661a2.032,2.032,0,0,1-1.447.649,2.055,2.055,0,0,1-1.472-.586,2.02,2.02,0,0,1-.068-2.787L16.3,8.575l2.888,2.409a2.359,2.359,0,0,0,3.041-3.607L17.471,3.323l.582-.5A9.946,9.946,0,0,1,24.392.468h.039a9.594,9.594,0,0,1,6.824,2.808l.288.288a9.753,9.753,0,0,1,0,13.793L17.414,31.464a2.031,2.031,0,0,1-1.43.583M19.55,22.7a.426.426,0,0,1,.291.112.427.427,0,0,1,.027.6L14.8,28.96a1.653,1.653,0,0,0-.42.958,1.624,1.624,0,0,0,.883,1.573,1.643,1.643,0,0,0,1.881-.3L29.814,18.534a.457.457,0,0,1,.06-.049l1.4-1.4a9.366,9.366,0,0,0,0-13.246l-.288-.288a9.218,9.218,0,0,0-6.56-2.7A9.576,9.576,0,0,0,18.3,3.121l-.238.2,4.41,3.76a2.745,2.745,0,0,1-3.539,4.2l-2.6-2.171L5.375,21.2a1.635,1.635,0,0,0,2.416,2.2l5.859-6.392a.427.427,0,1,1,.629.577L8.216,24.2a1.59,1.59,0,0,0,.066,2.227,1.6,1.6,0,0,0,2.282-.058l5.962-6.4a.424.424,0,0,1,.3-.136.407.407,0,0,1,.306.114.426.426,0,0,1,.021.6l-5.757,6.216a1.57,1.57,0,0,0,2.319,2.118l5.526-6.045a.423.423,0,0,1,.3-.138h.017M5.894,19.929,3.324,17.358a9.753,9.753,0,0,1,0-13.793l.192-.192A9.871,9.871,0,0,1,17.393,3.36l3.232,2.757,1.549,1.322a2.256,2.256,0,0,1,.8,1.627c0,.038,0,.074,0,.11a2.261,2.261,0,0,1-.645,1.585,2.289,2.289,0,0,1-3.092.161L16.319,8.488a.041.041,0,0,0-.056,0ZM10.46.9A9.362,9.362,0,0,0,3.789,3.646L3.6,3.838a9.367,9.367,0,0,0,0,13.246l2.284,2.284,10.1-11.137a.428.428,0,0,1,.589-.041l2.918,2.434a1.9,1.9,0,0,0,2.568-.134,1.876,1.876,0,0,0,.536-1.315l0-.093a1.874,1.874,0,0,0-.662-1.35l-1.55-1.321L17.13,3.644A9.376,9.376,0,0,0,10.46.9" transform="translate(1.862 1.241)" fill="#00a79b" stroke="#00a79b" stroke-width="1"/>
    </g>
  </g>
</svg>
