<svg id="Grupo_7334" data-name="Grupo 7334" xmlns="http://www.w3.org/2000/svg" xmlns:xlink="http://www.w3.org/1999/xlink" width="113.696" height="53.355" viewBox="0 0 113.696 53.355">
  <defs>
    <clipPath id="clip-path">
      <rect id="Rect치ngulo_1478" data-name="Rect치ngulo 1478" width="113.696" height="53.355" transform="translate(0 0)" fill="none"/>
    </clipPath>
  </defs>
  <path id="Trazado_53437" data-name="Trazado 53437" d="M.147.28V16.589H3.152V9.951h8.626V7.34H3.152V2.889h9.725V.28Z" fill="#00202d"/>
  <g id="Grupo_7335" data-name="Grupo 7335">
    <g id="Grupo_7334-2" data-name="Grupo 7334" clip-path="url(#clip-path)">
      <path id="Trazado_53438" data-name="Trazado 53438" d="M31.958,8.482V8.436a5.715,5.715,0,0,0-5.625-5.8c-.064,0-.127,0-.19,0a5.634,5.634,0,0,0-5.766,5.754v.048a5.7,5.7,0,0,0,5.613,5.779h.2a5.617,5.617,0,0,0,5.766-5.733m-14.733,0V8.436C17.225,3.846,20.938,0,26.192,0S35.11,3.8,35.11,8.388v.047c0,4.589-3.713,8.435-8.966,8.435s-8.918-3.8-8.918-8.388" fill="#00202d"/>
      <path id="Trazado_53439" data-name="Trazado 53439" d="M48.107,8.365c2.15,0,3.519-1.072,3.519-2.726V5.593c0-1.747-1.319-2.7-3.543-2.7H43.709V8.365ZM40.7.28h7.623a7.107,7.107,0,0,1,4.937,1.63A4.81,4.81,0,0,1,54.68,5.429v.047c0,2.68-1.686,4.287-4.056,4.939l4.618,6.175H51.675l-4.2-5.685H43.709V16.59H40.7Z" fill="#00202d"/>
      <path id="Trazado_53440" data-name="Trazado 53440" d="M74.3,8.482V8.436a5.715,5.715,0,0,0-5.625-5.8c-.064,0-.127,0-.19,0a5.634,5.634,0,0,0-5.766,5.754v.048a5.7,5.7,0,0,0,5.613,5.779h.2A5.618,5.618,0,0,0,74.3,8.482m-14.733,0V8.436C59.567,3.846,63.281,0,68.533,0s8.919,3.8,8.919,8.388v.047c0,4.589-3.714,8.435-8.967,8.435s-8.918-3.8-8.918-8.388" fill="#00202d"/>
      <path id="Trazado_53441" data-name="Trazado 53441" d="M0,23.955H3.762V37H12.29v3.262H0Z" fill="#00202d"/>
      <path id="Trazado_53442" data-name="Trazado 53442" d="M25.85,33.439l-2.272-5.29-2.273,5.29Zm-3.959-9.6h3.47l7.33,16.426H28.757l-1.564-3.658H19.961L18.4,40.265H14.562Z" fill="#00202d"/>
      <path id="Trazado_53443" data-name="Trazado 53443" d="M48.45,27.264h-5.2V23.956h14.17v3.308h-5.2v13H48.45Z" fill="#00202d"/>
      <path id="Trazado_53444" data-name="Trazado 53444" d="M73.957,32.156V32.11a5.069,5.069,0,0,0-5.011-5.128h-.168a4.99,4.99,0,0,0-5.132,5.079v.048a5.07,5.07,0,0,0,5.012,5.126c.056,0,.112,0,.168,0a4.989,4.989,0,0,0,5.131-5.079m-14.244,0V32.11c0-4.638,3.836-8.436,9.113-8.436s9.065,3.752,9.065,8.388v.048c0,4.636-3.836,8.435-9.113,8.435s-9.065-3.752-9.065-8.388" fill="#00202d"/>
      <path id="Trazado_53445" data-name="Trazado 53445" d="M79.7,38.051l2.369-2.516a4.28,4.28,0,0,0,3.128,1.63c1.417,0,2.3-.815,2.3-2.7V23.955h3.861V34.626a5.761,5.761,0,0,1-1.612,4.356A6.29,6.29,0,0,1,85.294,40.5a7.128,7.128,0,0,1-5.6-2.446" fill="#00202d"/>
      <path id="Trazado_53446" data-name="Trazado 53446" d="M105.3,33.439l-2.272-5.29-2.273,5.29Zm-3.959-9.6h3.47l7.33,16.426h-3.934l-1.564-3.658H99.415l-1.563,3.658H94.016Z" fill="#00202d"/>
      <path id="Trazado_53447" data-name="Trazado 53447" d="M0,48.489H.975l1.511,3.677,1.506-3.677h.953L2.867,53.308H2.085Z" fill="#00202d"/>
      <path id="Trazado_53448" data-name="Trazado 53448" d="M8.9,47.1l.789.329-.917.663H8.1ZM8,48.489h.881v4.785H8Z" fill="#00202d"/>
      <path id="Trazado_53449" data-name="Trazado 53449" d="M12.371,48.489h.817L15.876,51.8V48.489h.867v4.785h-.738l-2.767-3.4v3.4h-.867Z" fill="#00202d"/>
      <path id="Trazado_53450" data-name="Trazado 53450" d="M19.956,50.9v-.014a2.481,2.481,0,0,1,2.587-2.475,2.682,2.682,0,0,1,1.964.745l-.565.621a2.054,2.054,0,0,0-1.406-.594,1.646,1.646,0,0,0-1.657,1.634c0,.018,0,.036,0,.053v.014a1.647,1.647,0,0,0,1.6,1.695h.057a2.013,2.013,0,0,0,1.442-.615l.565.546a2.647,2.647,0,0,1-2.036.847,2.464,2.464,0,0,1-2.551-2.46" fill="#00202d"/>
      <path id="Trazado_53451" data-name="Trazado 53451" d="M27.535,51.243V48.489h.883v2.72a1.2,1.2,0,0,0,1.268,1.36,1.17,1.17,0,0,0,1.261-1.326V48.489h.881V51.2a1.956,1.956,0,0,1-2.157,2.146,1.933,1.933,0,0,1-2.136-2.106" fill="#00202d"/>
      <path id="Trazado_53452" data-name="Trazado 53452" d="M35.186,48.489h.882v4.018H38.7v.767H35.186Z" fill="#00202d"/>
      <path id="Trazado_53453" data-name="Trazado 53453" d="M45.581,50.9v-.014a1.677,1.677,0,0,0-1.651-1.7h-.054a1.653,1.653,0,0,0-1.692,1.613c0,.025,0,.049,0,.074v.014a1.672,1.672,0,0,0,1.649,1.7h.057a1.648,1.648,0,0,0,1.691-1.6c0-.027,0-.053,0-.08m-4.322,0v-.014a2.628,2.628,0,0,1,5.247-.013v.014a2.628,2.628,0,0,1-5.247.014" fill="#00202d"/>
      <path id="Trazado_53454" data-name="Trazado 53454" d="M57.056,51.373l-.867-1.913-.86,1.913Zm-1.262-2.918h.818l2.207,4.819h-.932l-.509-1.156H55.006l-.516,1.156h-.9Z" fill="#00202d"/>
      <path id="Trazado_53455" data-name="Trazado 53455" d="M62.413,49.269h-1.59v-.78h4.07v.78H63.3v4.005h-.888Z" fill="#00202d"/>
      <path id="Trazado_53456" data-name="Trazado 53456" d="M67.971,48.489h.882v4.018H71.49v.767H67.971Z" fill="#00202d"/>
      <path id="Trazado_53457" data-name="Trazado 53457" d="M77.184,47.034l.789.328-.918.663h-.673Zm.408,4.339-.867-1.913-.859,1.913Zm-1.261-2.918h.817l2.208,4.819h-.932l-.51-1.156H75.543l-.517,1.156h-.9Z" fill="#00202d"/>
      <path id="Trazado_53458" data-name="Trazado 53458" d="M82.362,48.489h.817L85.867,51.8V48.489h.867v4.785H86l-2.767-3.405v3.405h-.867Z" fill="#00202d"/>
      <path id="Trazado_53459" data-name="Trazado 53459" d="M91.4,49.269h-1.59v-.78h4.07v.78H92.29v4.005H91.4Z" fill="#00202d"/>
      <rect id="Rect치ngulo_1477" data-name="Rect치ngulo 1477" width="0.882" height="4.785" transform="translate(97.009 48.489)" fill="#00202d"/>
      <path id="Trazado_53460" data-name="Trazado 53460" d="M101.157,50.9v-.014a2.481,2.481,0,0,1,2.587-2.475,2.68,2.68,0,0,1,1.964.745l-.565.621a2.054,2.054,0,0,0-1.406-.594,1.645,1.645,0,0,0-1.656,1.634c0,.018,0,.036,0,.053v.014a1.646,1.646,0,0,0,1.6,1.695h.057a2.008,2.008,0,0,0,1.442-.615l.566.546a2.651,2.651,0,0,1-2.037.847,2.464,2.464,0,0,1-2.551-2.46" fill="#00202d"/>
      <path id="Trazado_53461" data-name="Trazado 53461" d="M112.771,50.9v-.014a1.677,1.677,0,0,0-1.651-1.7h-.054a1.653,1.653,0,0,0-1.692,1.613c0,.025,0,.049,0,.074v.014a1.672,1.672,0,0,0,1.647,1.7h.059a1.648,1.648,0,0,0,1.691-1.6c0-.026,0-.053,0-.079m-4.322,0v-.014a2.628,2.628,0,0,1,5.247-.014v.014a2.628,2.628,0,0,1-5.246.015" fill="#00202d"/>
    </g>
  </g>
</svg>
