 <svg xmlns="http://www.w3.org/2000/svg" xmlns:xlink="http://www.w3.org/1999/xlink" width="247.694" height="136.976" viewBox="0 0 247.694 136.976">
  <defs>
    <clipPath id="clip-path">
      <rect id="Rectángulo_210" data-name="Rectángulo 210" width="247.694" height="136.976" fill="#fff"></rect>
    </clipPath>
    <filter id="Unión_10" x="-9.732" y="-7.499" filterUnits="userSpaceOnUse">
      <feOffset dx="3" dy="5" input="SourceAlpha"></feOffset>
      <feGaussianBlur stdDeviation="4" result="blur"></feGaussianBlur>
      <feFlood flood-opacity="0.455"></feFlood>
      <feComposite operator="in" in2="blur"></feComposite>
      <feComposite in="SourceGraphic"></feComposite>
    </filter>
  </defs>
  <g id="Grupo_8871" data-name="Grupo 8871" transform="translate(-95.346 -12.839)">
    <g id="Enmascarar_grupo_182" data-name="Enmascarar grupo 182" transform="translate(95.346 12.839)" clip-path="url(#clip-path)">
      <g transform="matrix(1, 0, 0, 1, 0, 0)" filter="url(#Unión_10)">
        <path id="Unión_10-2" data-name="Unión 10" d="M43.238,136.963a8.258,8.258,0,0,1-1.746-.212,7.74,7.74,0,0,1-1.825-.638A5.571,5.571,0,0,1,38.22,135.1a1.811,1.811,0,0,1-.6-1.275,58.784,58.784,0,0,1,.513-7.224q.593-5.949,1.613-12.406t2.378-12.919q1.362-6.457,3.06-12.66c1.131-4.135,5.45-15.45,6.754-19.134a32.552,32.552,0,0,1,1.912-4.417c.593-1.078,1.932-3.261,2.386-3.261a6.858,6.858,0,0,1,1.829.381c.823.257,1.644.553,2.462.894a14.219,14.219,0,0,1,2.17,1.1c.624.4.934.764.934,1.106a.577.577,0,0,1-.169.426c-.228.282-.429.522-.6.722a5.876,5.876,0,0,0-.511.719,54.419,54.419,0,0,0-2.683,5.769c-.626,1.673-4.363,10.948-5.012,13.015s-1.289,4.276-1.912,6.629-1.216,4.716-1.786,7.094A12.937,12.937,0,0,0,54.4,98.551a19.563,19.563,0,0,0,3.442-2.039,18.8,18.8,0,0,0,1.472-1.2c.254-.691.522-1.382.827-2.071a25.132,25.132,0,0,1,3.227-5.481,18.574,18.574,0,0,1,4.037-3.867A7.8,7.8,0,0,1,71.87,82.4a6.77,6.77,0,0,1,2.759.722,12.15,12.15,0,0,1,2.933,1.913,12.539,12.539,0,0,1,2.3,2.635,5.152,5.152,0,0,1,.934,2.8A10.536,10.536,0,0,1,79.263,96a16.752,16.752,0,0,1-3.9,4.463,19.2,19.2,0,0,1-5.143,2.973,14.59,14.59,0,0,1-5.23,1.063,11.818,11.818,0,0,0,.979,5.777,4.173,4.173,0,0,0,4.124,2.378,7.249,7.249,0,0,0,4.97-2.293,28.285,28.285,0,0,0,4.5-5.653,57.517,57.517,0,0,0,3.74-7.1c.1-.231.2-.449.294-.674.443-2.635.917-5.281,1.447-7.949q1.02-5.141,2.251-10.028t2.465-8.711A49.912,49.912,0,0,1,92.1,64.132c.736-1.529,1.39-2.293,1.954-2.293a6.919,6.919,0,0,1,1.831.381q1.227.385,2.465.894a14.207,14.207,0,0,1,2.164,1.1c.626.4.934.764.934,1.106a.566.566,0,0,1-.17.426c-.228.282-.428.525-.595.722a5.01,5.01,0,0,0-.511.722,47.2,47.2,0,0,0-3.354,8.327Q95.066,80.961,93.5,87.291T90.691,99.869q-1.232,6.245-1.825,10.75-.174,1.447.169,1.659a.274.274,0,0,0,.147.04c.248,0,.624-.254,1.131-.762a26.421,26.421,0,0,0,3.484-4.632q1.612-2.678,2.973-5.481t2.463-5.523c.6-1.475,1.122-2.812,1.568-4.023a77.817,77.817,0,0,1,2.937-8.045c.339-.736.767-1.106,1.272-1.106a4.734,4.734,0,0,1,1.4.257,10.721,10.721,0,0,1,1.577.638,13.026,13.026,0,0,1,1.4.807q.634.427,1.066.764a.6.6,0,0,1,.076.051.849.849,0,0,1,.178,1.182,5.262,5.262,0,0,0-.6,1.4q-1.1,2.805-2.082,5.949t-1.822,6.288q-.854,3.144-1.492,6.076t-1.061,5.227c-.116.623-.029.965.254,1.021a.913.913,0,0,0,.124.011,1.211,1.211,0,0,0,.81-.437,26.825,26.825,0,0,0,3.653-4.632,55.791,55.791,0,0,0,3.1-5.566c.214-.437.406-.872.609-1.309.067-.31.127-.626.2-.942a31.5,31.5,0,0,1,3.1-8.245,24.709,24.709,0,0,1,4.847-6.33A8.329,8.329,0,0,1,126,82.408a7.348,7.348,0,0,1,2.973.638,9.843,9.843,0,0,1,2.59,1.661,8.735,8.735,0,0,1,1.871,2.336,5.562,5.562,0,0,1,.722,2.677,14.588,14.588,0,0,1-.426,3.441,16.32,16.32,0,0,1-1.061,3.1,9.011,9.011,0,0,1-1.4,2.209,2.13,2.13,0,0,1-1.526.852,5.066,5.066,0,0,1-2.38-.852,9.693,9.693,0,0,1-2.291-1.783,1.008,1.008,0,0,1-.214-1.063,2.079,2.079,0,0,1,.894-.979,8.949,8.949,0,0,0,2.338-2.082,9.412,9.412,0,0,0,1.568-2.762,4.222,4.222,0,0,0,.424-2.55,1.068,1.068,0,0,0-1.1-.849,4.979,4.979,0,0,0-3.568,1.955,20.194,20.194,0,0,0-3.188,4.846,32.141,32.141,0,0,0-2.253,6.333,23.725,23.725,0,0,0-.765,6.33,10.026,10.026,0,0,0,1.233,4.846,4.038,4.038,0,0,0,3.783,1.955,7.492,7.492,0,0,0,5.227-2.293,26.107,26.107,0,0,0,4.42-5.653,58.191,58.191,0,0,0,3.569-7.094c.341-.81.66-1.577.976-2.324V95.29a83.233,83.233,0,0,1,3.91-11.43q.508-1.1,1.275-1.106a4.758,4.758,0,0,1,1.4.257,10.69,10.69,0,0,1,1.574.638,13.783,13.783,0,0,1,1.4.807c.423.285.776.539,1.066.764l.076.051a.846.846,0,0,1,.175,1.182,5.191,5.191,0,0,0-.6,1.4q-1.1,2.805-2.082,5.949t-1.827,6.288q-.851,3.144-1.486,6.076t-1.064,5.227c-.113.626-.025.965.254,1.021a.66.66,0,0,0,.125.011,1.217,1.217,0,0,0,.812-.437,27.073,27.073,0,0,0,3.653-4.629,56.485,56.485,0,0,0,3.1-5.568c.582-1.2,1.12-2.378,1.633-3.554q.516-1.883,1.216-3.712a29.454,29.454,0,0,1,3.692-6.88,15.71,15.71,0,0,1,5.224-4.714,3.867,3.867,0,0,1,1.983-.556h.141a7.239,7.239,0,0,1,2.172.423,15.261,15.261,0,0,1,2.079.936c.68.37,1.329.694,1.954.976q1.02-4.587,2.082-8.711t2.166-7.264a45.515,45.515,0,0,1,2.039-5.015q.935-1.87,1.7-1.87a7.425,7.425,0,0,1,1.871.384,25.857,25.857,0,0,1,2.505.891,14.443,14.443,0,0,1,2.17,1.106c.626.395.934.764.934,1.106a.391.391,0,0,1-.254.423,3.745,3.745,0,0,1-.553.722,2.24,2.24,0,0,0-.466.722,47.842,47.842,0,0,0-3.357,8.33q-1.743,5.441-3.312,11.769t-2.806,12.578q-1.237,6.25-1.829,10.75c-.135,1.123-.028,1.684.328,1.684q.351,0,1.035-.748A26.344,26.344,0,0,0,178,106.938q1.617-2.678,3.018-5.481.788-1.582,1.484-3.14c.3-.987.635-1.969,1.021-2.936.435-1.086.923-2.124,1.445-3.134q.228-.6.426-1.159a1.386,1.386,0,0,1,.558-.615c.505-.852,1.033-1.69,1.608-2.485a16.751,16.751,0,0,1,5.565-5.058,3.856,3.856,0,0,1,1.947-.556h.136a7.611,7.611,0,0,1,2.172.426,15.072,15.072,0,0,1,2.206.976q1.1.592,2.3,1.19a1.109,1.109,0,0,0,.254-.511c.056-.229.113-.426.169-.6q.508-1.1,1.278-1.1a4.826,4.826,0,0,1,1.4.254,10.736,10.736,0,0,1,1.571.637,12.937,12.937,0,0,1,1.4.81c.423.282.778.539,1.061.764a.472.472,0,0,1,.076.051.846.846,0,0,1,.18,1.182,9.328,9.328,0,0,0-.682,1.4q-1.02,2.8-1.952,5.949t-1.7,6.288q-.77,3.148-1.365,6.079t-1.019,5.227c-.116.626-.031.965.254,1.021a.658.658,0,0,0,.125.011,1.2,1.2,0,0,0,.812-.437,25.5,25.5,0,0,0,3.611-4.629,54.327,54.327,0,0,0,3.015-5.568c.355-.753.683-1.5,1.008-2.248a40.351,40.351,0,0,1,1.543-5.015,29.635,29.635,0,0,1,3.7-6.886,15.771,15.771,0,0,1,5.224-4.714,3.916,3.916,0,0,1,1.983-.556h.141a7.289,7.289,0,0,1,2.166.426,15.659,15.659,0,0,1,2.085.934c.68.37,1.329.7,1.952.979q1.028-4.591,2.085-8.711t2.166-7.266a44.677,44.677,0,0,1,2.039-5.015q.935-1.866,1.7-1.867a7.42,7.42,0,0,1,1.871.381,26.564,26.564,0,0,1,2.507.894,13.838,13.838,0,0,1,2.166,1.1q.935.6.934,1.106a.39.39,0,0,1-.254.426,3.576,3.576,0,0,1-.553.722,2.057,2.057,0,0,0-.462.722,47.565,47.565,0,0,0-3.359,8.327q-1.74,5.441-3.315,11.771t-2.8,12.578q-1.227,6.245-1.822,10.75c-.141,1.12-.031,1.681.324,1.681.232,0,.578-.248,1.03-.748a26.313,26.313,0,0,0,3.484-4.632q1.616-2.674,3.018-5.481t2.507-5.523q1.109-2.725,1.87-4.849a1.332,1.332,0,0,1,.68-.68,1.114,1.114,0,0,1,.852,0,1.2,1.2,0,0,1,.68,1.529q-.6,1.447-1.528,3.825t-2.212,5.14q-1.278,2.763-2.8,5.568a40.57,40.57,0,0,1-3.227,5.058l.006.011a20.1,20.1,0,0,1-3.529,3.7,5.824,5.824,0,0,1-3.611,1.444,3.9,3.9,0,0,1-2.719-.849,4.558,4.558,0,0,1-1.32-2.082,9.058,9.058,0,0,1-.384-2.677q0-1.447.085-2.722a5.336,5.336,0,0,1,.042-.638,5.664,5.664,0,0,0,.045-.722,41.472,41.472,0,0,1-2,3.7,18.93,18.93,0,0,1-2.293,3.061,11.469,11.469,0,0,1-2.637,2.124,5.775,5.775,0,0,1-2.931.807,5.176,5.176,0,0,1-4.632-2.082,9.487,9.487,0,0,1-1.571-4.8c-.047-.948-.031-1.941.02-2.962a41.128,41.128,0,0,1-2.948,4.705,19.986,19.986,0,0,1-3.447,3.7,5.665,5.665,0,0,1-3.568,1.444,3.932,3.932,0,0,1-2-.511,4.963,4.963,0,0,1-1.528-1.36,5.731,5.731,0,0,1-.931-1.87,5.537,5.537,0,0,1-.214-2.039,12.364,12.364,0,0,0,.214-1.614,10.81,10.81,0,0,1,.212-1.616,1.573,1.573,0,0,0,.087-.6,32.16,32.16,0,0,1-4.254,6.756,6.832,6.832,0,0,1-5.266,2.846,5.175,5.175,0,0,1-3.955-1.487,6.365,6.365,0,0,1-1.659-3.786,25.81,25.81,0,0,1-.093-4.762,41.036,41.036,0,0,1-3.134,4.888,20.248,20.248,0,0,1-3.529,3.7,5.855,5.855,0,0,1-3.607,1.447,3.912,3.912,0,0,1-2.725-.852,4.572,4.572,0,0,1-1.318-2.082,8.987,8.987,0,0,1-.384-2.677q0-1.447.085-2.722a4.4,4.4,0,0,1,.045-.638,5.629,5.629,0,0,0,.042-.722c-.6,1.264-1.269,2.5-1.994,3.7a19.029,19.029,0,0,1-2.3,3.061,11.342,11.342,0,0,1-2.635,2.124,5.751,5.751,0,0,1-2.928.807,5.172,5.172,0,0,1-4.635-2.082,9.474,9.474,0,0,1-1.568-4.8,30.827,30.827,0,0,1,.031-3.379c-.011.023-.022.045-.031.068a40.824,40.824,0,0,1-3.236,5.052,19.99,19.99,0,0,1-3.526,3.7,5.853,5.853,0,0,1-3.611,1.444,3.969,3.969,0,0,1-2-.511,5.038,5.038,0,0,1-1.528-1.36,5.809,5.809,0,0,1-.934-1.87,5.536,5.536,0,0,1-.212-2.039,11.538,11.538,0,0,0,.212-1.614,12.405,12.405,0,0,1,.214-1.616c.1-.635.212-1.275.324-1.915-.3.527-.6,1.055-.919,1.577a28.879,28.879,0,0,1-5.442,6.629,10.094,10.094,0,0,1-6.883,2.722q-5.1,0-7.689-2.55a11,11,0,0,1-3.185-6.33c-.071-.443-.116-.894-.158-1.348l-.014.031a41.009,41.009,0,0,1-3.232,5.055,20.181,20.181,0,0,1-3.524,3.7,5.847,5.847,0,0,1-3.616,1.444,3.92,3.92,0,0,1-1.994-.511,4.893,4.893,0,0,1-1.526-1.36,5.7,5.7,0,0,1-.937-1.87,5.608,5.608,0,0,1-.214-2.039,11.383,11.383,0,0,0,.214-1.614,11.58,11.58,0,0,1,.212-1.616q.228-1.464.5-2.951c-.3.587-.6,1.173-.925,1.763a40.862,40.862,0,0,1-3.228,5.061,20.971,20.971,0,0,1-3.481,3.7,5.775,5.775,0,0,1-3.656,1.444,3.915,3.915,0,0,1-2.721-.849,4.593,4.593,0,0,1-1.318-2.085,8.922,8.922,0,0,1-.381-2.677c0-.965.025-1.87.087-2.722.09-1.1.212-2.279.355-3.492-.5.88-1,1.749-1.548,2.6a30.023,30.023,0,0,1-5.523,6.544,9.87,9.87,0,0,1-6.629,2.677,11.761,11.761,0,0,1-6.243-1.487,9.428,9.428,0,0,1-3.613-3.867,13.847,13.847,0,0,1-1.368-5.481,22.667,22.667,0,0,1,.553-6.29c.034-.149.076-.3.113-.451a20.676,20.676,0,0,1-3.212,1.769,15.015,15.015,0,0,1-4,1.19q.6,3.228.894,6.756t.254,7.055a56.367,56.367,0,0,1-.508,6.925,52.918,52.918,0,0,1-1.233,6.288,24.567,24.567,0,0,1-1.191,3.526,9.05,9.05,0,0,1-1.858,2.92,3.7,3.7,0,0,1-2,1.275,12.057,12.057,0,0,1-1.989.169Zm4.11-18.809q-.892,5.564-1.486,11.173-.427,3.994.17,3.994c.169,0,.341-.152.51-.465a7.645,7.645,0,0,0,.466-1.061c.141-.4.283-.793.426-1.19s.237-.68.3-.849a44.533,44.533,0,0,0,1.994-11.261h0a66.15,66.15,0,0,0-.384-11.43Q48.241,112.586,47.348,118.153ZM198.914,86.326a5.376,5.376,0,0,0-4.124,2.381,24.472,24.472,0,0,0-3.357,5.822,46.019,46.019,0,0,0-2.335,7.221,40.528,40.528,0,0,0-1.064,6.5c0,.226-.014.567-.042,1.021a6.834,6.834,0,0,0,.042,1.317,3.628,3.628,0,0,0,.341,1.145.817.817,0,0,0,.765.511,2.955,2.955,0,0,0,2.124-1.4,24.044,24.044,0,0,0,2.253-3.566,43.526,43.526,0,0,0,2.166-4.846q1.02-2.678,1.912-5.185t1.526-4.547q.639-2.039.977-3.058c.118-.4.245-.779.386-1.148h.006a11.33,11.33,0,0,1,.462-1.063,2.239,2.239,0,0,0-1.932-1.109C198.988,86.323,198.95,86.323,198.914,86.326Zm24.854,2.212a21.281,21.281,0,0,0-3.013,5.484,50.733,50.733,0,0,0-2.121,6.883,46.324,46.324,0,0,0-1.106,6.417,8.1,8.1,0,0,0,.3,3.441c.308.821.776,1.233,1.4,1.233q1.447,0,3.145-2.722a36.425,36.425,0,0,0,2.8-5.312q1.357-3.1,2.462-6.248.432-2.463.895-4.97h0q.462-2.5.973-5.055a1.964,1.964,0,0,0-1.871-1.36A4.932,4.932,0,0,0,223.768,88.537Zm-59.911,0a21.354,21.354,0,0,0-3.015,5.484,50.9,50.9,0,0,0-2.124,6.883,46.916,46.916,0,0,0-1.106,6.417,8.219,8.219,0,0,0,.3,3.441c.313.821.779,1.233,1.4,1.233q1.447,0,3.145-2.722a36.466,36.466,0,0,0,2.806-5.314c.9-2.065,1.729-4.147,2.463-6.245q.422-2.463.894-4.97t.973-5.055a1.964,1.964,0,0,0-1.867-1.36A4.933,4.933,0,0,0,163.857,88.537Zm-91.82-1.018a10.787,10.787,0,0,0-2.423,2.59,24.129,24.129,0,0,0-2.081,3.7,29.51,29.51,0,0,0-1.571,4.336l0,0a29.24,29.24,0,0,0-.888,4.417,6.066,6.066,0,0,0,3.439-1.19,13.016,13.016,0,0,0,3.145-3.1A16.219,16.219,0,0,0,73.9,93.891a15.229,15.229,0,0,0,.852-5.013,1.683,1.683,0,0,0-.894-1.743,1.5,1.5,0,0,0-.6-.127A1.929,1.929,0,0,0,72.036,87.519Zm-41.873,15.4a3.9,3.9,0,0,1-1.351-1.828,6.26,6.26,0,0,1-.37-2.116V96.162a6.568,6.568,0,0,1,.35-2.124,3.546,3.546,0,0,1,1.568-1.856,6.152,6.152,0,0,1,3.2-.677h1.345V88.9a4,4,0,0,0-.223-1.329,2.084,2.084,0,0,0-.671-.948,2,2,0,0,0-1.287-.361.427.427,0,0,1-.1,0,1.851,1.851,0,0,0-1.637.691,2.981,2.981,0,0,0-.542,1.478,1.091,1.091,0,0,1,.1.415,1.116,1.116,0,0,1-2.231.023,1.027,1.027,0,0,1,.119-.533A6.048,6.048,0,0,1,28.9,86.52a3.8,3.8,0,0,1,1.368-1.642,4.255,4.255,0,0,1,2.42-.635,4.145,4.145,0,0,1,2.511.705,3.919,3.919,0,0,1,1.36,1.817,6.288,6.288,0,0,1,.375,2.141V102.06a1.242,1.242,0,0,1,.1.443,1.117,1.117,0,0,1-2.1.536,4.241,4.241,0,0,1-4.767-.121Zm1.222-8.973a1.567,1.567,0,0,0-.705.869,4.412,4.412,0,0,0-.209,1.348v2.815a4.376,4.376,0,0,0,.214,1.36,1.767,1.767,0,0,0,.618.9,2.8,2.8,0,0,0,2.745.031,1.835,1.835,0,0,0,.5-.575,2.044,2.044,0,0,0,.107-.243,3.945,3.945,0,0,0,.257-1.255V93.527H33.524c-.1-.006-.192-.008-.283-.008A4.171,4.171,0,0,0,31.385,93.945ZM1.7,102.932a3.784,3.784,0,0,1-1.354-1.853A6.482,6.482,0,0,1,0,98.974V88.9A6.446,6.446,0,0,1,.35,86.78a3.746,3.746,0,0,1,1.326-1.814,4.245,4.245,0,0,1,2.567-.722,3.68,3.68,0,0,1,2.217.609V78.89a1.227,1.227,0,0,1-.1-.437.873.873,0,0,1,.006-.243A1.07,1.07,0,0,1,7.476,77.3a1.259,1.259,0,0,1,.2.008,1.066,1.066,0,0,1,.906,1.176,1.256,1.256,0,0,1-.1.412v23.151a1.013,1.013,0,0,1,.1.437,1.049,1.049,0,0,1-.423.948,1,1,0,0,1-.694.206.889.889,0,0,1-.212-.011,1.028,1.028,0,0,1-.691-.412,1.314,1.314,0,0,1-.1-.158c-.051.031-.1.065-.158.093a4.048,4.048,0,0,1-2.09.488c-.074,0-.15.006-.226.006A4.2,4.2,0,0,1,1.7,102.932ZM4.057,101.6l.1.006h.025c.031,0,.079,0,.1,0a2.03,2.03,0,0,0,1.272-.378,2.151,2.151,0,0,0,.665-.953,3.881,3.881,0,0,0,.243-1.309L6.46,88.9A3.294,3.294,0,0,0,6.2,87.618a2.4,2.4,0,0,0-.75-.984,1.9,1.9,0,0,0-1.185-.367.226.226,0,0,1-.062,0,2.167,2.167,0,0,0-1.334.384,1.894,1.894,0,0,0-.632.911,4.442,4.442,0,0,0-.211,1.34V98.974a4.555,4.555,0,0,0,.211,1.36,1.793,1.793,0,0,0,.649.92,2.149,2.149,0,0,0,.968.347.966.966,0,0,0,.13,0ZM14,103.632c-.071.006-.141.006-.212.006a4.121,4.121,0,0,1-2.293-.708,3.889,3.889,0,0,1-1.368-1.842,6.311,6.311,0,0,1-.366-2.113V88.9a6.159,6.159,0,0,1,.37-2.138,3.89,3.89,0,0,1,1.34-1.8A4.18,4.18,0,0,1,14,84.244a4.1,4.1,0,0,1,2.511.705,3.946,3.946,0,0,1,1.365,1.817,6.163,6.163,0,0,1,.37,2.141v3.955a.666.666,0,0,1-.663.666h-5.8v5.447a4.148,4.148,0,0,0,.223,1.348,1.908,1.908,0,0,0,.674.934,2.078,2.078,0,0,0,1.287.355,1.936,1.936,0,0,0,1.72-.623,3.161,3.161,0,0,0,.522-1.526,1.067,1.067,0,0,1-.093-.42,1.545,1.545,0,0,1,.006-.237,1.068,1.068,0,0,1,1.052-.917c.014,0,.029,0,.045,0a.985.985,0,0,1,.223.008,1.064,1.064,0,0,1,.9,1.142,1.038,1.038,0,0,1-.121.474,6.3,6.3,0,0,1-.451,1.8,3.789,3.789,0,0,1-1.323,1.659,4.13,4.13,0,0,1-2.248.666C14.133,103.637,14.065,103.634,14,103.632ZM12.009,87.567a4.032,4.032,0,0,0-.226,1.334v2.6h4.435V88.9a4.3,4.3,0,0,0-.212-1.34,1.946,1.946,0,0,0-.649-.936,2.3,2.3,0,0,0-.279-.161,2.159,2.159,0,0,0-1.035-.2c-.029,0-.06,0-.087,0-.043,0-.085,0-.125,0A1.911,1.911,0,0,0,12.009,87.567Zm13.1,14.95a.988.988,0,0,1,.1-.471V78.89a1.337,1.337,0,0,1-.1-.446,1.116,1.116,0,1,1,2.231-.028v.034a1.308,1.308,0,0,1-.107.44v23.156a1.058,1.058,0,0,1,.107.5,1.116,1.116,0,0,1-2.231-.028ZM146.184,78.724a10.2,10.2,0,0,1,.214-3.994,33.969,33.969,0,0,1,2.632-7.266q1.189-2.378,2.039-2.381a9.9,9.9,0,0,1,2.251.767,15,15,0,0,1,2.764,1.526q1.781,1.189.339,3.484-.6.935-1.659,2.55v0q-1.063,1.616-2.251,3.142a28.5,28.5,0,0,1-2.338,2.677,3.12,3.12,0,0,1-1.912,1.148c-.054,0-.107,0-.161,0-.017,0-.031,0-.045.006l-.1,0A1.775,1.775,0,0,1,146.184,78.724Zm-38.583,0a10.406,10.406,0,0,1,.214-3.994,28.714,28.714,0,0,1,1.36-4.378,29.945,29.945,0,0,1,1.278-2.889c.787-1.585,1.47-2.381,2.037-2.381a10.021,10.021,0,0,1,2.253.764,15.212,15.212,0,0,1,2.759,1.529q1.789,1.189.339,3.484-.6.931-1.659,2.55t-2.251,3.142l0,0a28.344,28.344,0,0,1-2.338,2.677,3.125,3.125,0,0,1-1.912,1.148c-.053,0-.107,0-.163,0a.2.2,0,0,1-.042,0l-.107,0A1.775,1.775,0,0,1,107.6,78.724ZM10.28,69.878a3.889,3.889,0,0,1-1.365-1.842,6.176,6.176,0,0,1-.37-2.113V63.11a6.4,6.4,0,0,1,.35-2.127,3.539,3.539,0,0,1,1.568-1.856,6.217,6.217,0,0,1,3.2-.674H15v-2.6a4.072,4.072,0,0,0-.223-1.326,2.073,2.073,0,0,0-.674-.951,2.051,2.051,0,0,0-1.283-.358c-.034,0-.067,0-.1,0a1.862,1.862,0,0,0-1.642.691,3.02,3.02,0,0,0-.539,1.478,1.157,1.157,0,0,1,.1.415,1.064,1.064,0,0,1-.3.793,1.11,1.11,0,0,1-.818.307A1.038,1.038,0,0,1,8.4,55.816a.99.99,0,0,1,.121-.533A6.111,6.111,0,0,1,9,53.466a3.808,3.808,0,0,1,1.371-1.642,4.271,4.271,0,0,1,2.415-.632,4.072,4.072,0,0,1,2.511.705,3.912,3.912,0,0,1,1.363,1.817,6.127,6.127,0,0,1,.372,2.138V69.006a1.1,1.1,0,0,1,.1.437,1.122,1.122,0,0,1-1.115,1.137,1.109,1.109,0,0,1-.984-.6,3.912,3.912,0,0,1-2.228.6c-.068.006-.136.006-.206.006A4.177,4.177,0,0,1,10.28,69.878Zm2.507-1.317h.043a2.186,2.186,0,0,0,1.314-.344,1.808,1.808,0,0,0,.609-.821,4.081,4.081,0,0,0,.254-1.258V60.473H13.622a4.193,4.193,0,0,0-2.135.417,1.567,1.567,0,0,0-.705.869,4.329,4.329,0,0,0-.212,1.348v2.815a4.439,4.439,0,0,0,.212,1.36,1.82,1.82,0,0,0,.649.922,2.092,2.092,0,0,0,.618.279,2.2,2.2,0,0,0,.7.076Zm11.972,1.977a2.121,2.121,0,0,1-2.088-2.164V2.15a2.127,2.127,0,1,1,4.254,0v66.3a2.126,2.126,0,0,1-2.124,2.09Zm39.218-.014a2.125,2.125,0,0,1-1.278-.434c.426-.9.832-1.69,1.069-2.1a3.322,3.322,0,0,1,.341-.48c.167-.2.361-.434.587-.716a2.239,2.239,0,0,0,.569-1.492,3.145,3.145,0,0,0-1.7-2.482v0a14.388,14.388,0,0,0-1.744-.939V2.15A2.153,2.153,0,0,1,63.977,0H75.526A12.384,12.384,0,0,1,87.892,12.369V58.154A12.384,12.384,0,0,1,75.526,70.524Zm2.146-4.3h9.4a8.08,8.08,0,0,0,8.07-8.07V12.369A8.082,8.082,0,0,0,75.526,4.3h-9.4ZM215.879,70.47v0a2.149,2.149,0,0,1-1.628-2.564l4.088-18.392c0-.006.006-.014.006-.02L228.965,1.681a2.148,2.148,0,0,1,4.195,0l10.632,47.83c0,.014.006.028.006.042l3.326,14.956a3.764,3.764,0,0,0-1.526-1.659,15.783,15.783,0,0,0-2.42-1.236c-.4-.166-.8-.319-1.2-.465l-2-9.029H222.158L218.44,68.839v.006a2.141,2.141,0,0,1-2.09,1.676A2.25,2.25,0,0,1,215.879,70.47Zm7.233-22.637h15.906l-7.952-35.782Zm-15.12,20.541V2.15a2.148,2.148,0,1,1,4.3,0V68.374a2.148,2.148,0,0,1-4.3,0Zm-49.466,1.788a3.5,3.5,0,0,0-.959-3.681V4.3H145.3a2.148,2.148,0,0,1,0-4.3h29.433a2.148,2.148,0,1,1,0,4.3H161.857V68.374a2.107,2.107,0,0,1-.355,1.19,2.15,2.15,0,0,1-2.976.6Zm-26.781.358a12.382,12.382,0,0,1-12.372-12.367,2.148,2.148,0,1,1,4.3,0,8.081,8.081,0,0,0,8.076,8.07h1.633a8.08,8.08,0,0,0,8.07-8.07c0-10.192-6.711-19.215-12.634-27.182-5.066-6.812-9.441-12.694-9.441-18.6A12.385,12.385,0,0,1,131.745,0h1.633a12.38,12.38,0,0,1,12.366,12.369,2.148,2.148,0,0,1-4.3,0,8.082,8.082,0,0,0-8.07-8.073h-1.639a8.081,8.081,0,0,0-8.07,8.07c0,4.488,3.983,9.842,8.592,16.039,6.321,8.5,13.483,18.135,13.483,29.748a12.38,12.38,0,0,1-12.366,12.367Zm-28.1,0a12.3,12.3,0,0,1-3.092-.406c.35-.784.689-1.489,1.024-2.087a4.149,4.149,0,0,1,.335-.482c.172-.195.37-.434.593-.714a2.129,2.129,0,0,0,.4-.643c.248.023.5.037.745.037h1.635a8.079,8.079,0,0,0,8.074-8.07v-56a2.148,2.148,0,1,1,4.3,0v56a12.307,12.307,0,0,1-1.805,6.406c-.152-.071-.3-.144-.46-.212a10.833,10.833,0,0,0-2.7-.886l-.1-.014h-.1c-1.628,0-2.677,1.642-3.486,3.255a30.676,30.676,0,0,0-1.346,3.044c-.076.192-.143.386-.214.578a12.526,12.526,0,0,1-2.155.2ZM31.267,68.374V2.15a1.584,1.584,0,0,1,.011-.206.628.628,0,0,1,.009-.082,1.316,1.316,0,0,1,.031-.169.626.626,0,0,1,.017-.076,1.029,1.029,0,0,1,.045-.152c.017-.051.04-.11.065-.169s.056-.118.087-.178c.02-.037.045-.079.067-.113s.034-.054.054-.082l.025-.037.014-.02c.028-.037.062-.079.087-.11.042-.048.11-.118.158-.164A1.622,1.622,0,0,1,32.1.449a1.871,1.871,0,0,1,.183-.127c.045-.025.116-.068.167-.093l.087-.039.014-.006.02-.008-.014.006.062-.028-.047.023L32.632.15c.036-.014.067-.025.1-.037a1.715,1.715,0,0,1,.189-.054l.1-.023.071-.011.141-.017a2.153,2.153,0,0,1,.381,0c.034.006.065.008.1.011.082.014.136.023.187.034.067.02.158.048.214.068a2.111,2.111,0,0,1,.2.079,1.951,1.951,0,0,1,.172.093A1.885,1.885,0,0,1,34.657.4a1.922,1.922,0,0,1,.175.138l.107.1c.017.02.036.04.056.059.034.04.087.1.121.147s.082.107.107.152a1.765,1.765,0,0,1,.107.192.646.646,0,0,1,.036.076,1.635,1.635,0,0,1,.065.161L53.342,55.139V2.15a2.147,2.147,0,0,1,4.294,0V60.383a6.017,6.017,0,0,0-1.4-.206c-.651,0-1.543,0-3.816,4.1-.11.2-.226.423-.339.652L35.56,15.382V68.374a2.146,2.146,0,1,1-4.293,0ZM244.715,70.23c.37-.843.734-1.594,1.089-2.228l.051-.09.04-.1a.532.532,0,0,1,.1-.175,4.785,4.785,0,0,0,.578-.7,2.051,2.051,0,0,0,.708-1.605h0c0-.056-.014-.107-.018-.164l.607,2.733a2.152,2.152,0,0,1-1.631,2.564,2.138,2.138,0,0,1-1.526-.24Zm-44.89-.8L189.414,52.123h-7.675v8.919c-.379-.133-.754-.26-1.134-.372a8.521,8.521,0,0,0-2.344-.451,2.205,2.205,0,0,0-.818.166V2.15A2.15,2.15,0,0,1,179.589,0h11.859a12.382,12.382,0,0,1,12.366,12.369V39.757a12.39,12.39,0,0,1-9.577,12.051l9.272,15.407c.009.017.02.037.031.054a2.143,2.143,0,0,1-.781,2.936,2.117,2.117,0,0,1-1.075.291A2.158,2.158,0,0,1,199.826,69.429Zm-18.087-21.6h9.709a8.082,8.082,0,0,0,8.07-8.073V12.369a8.082,8.082,0,0,0-8.07-8.073h-9.709ZM7.487,70.233H.943a.663.663,0,0,1-.663-.666V45.836a1.3,1.3,0,0,1-.1-.44.853.853,0,0,1,.006-.24,1.062,1.062,0,0,1,1.111-.914,1.071,1.071,0,0,1,.212.011,1.057,1.057,0,0,1,.894,1.2,1,1,0,0,1-.1.381V68.21H7.481a1.322,1.322,0,0,1,.44-.1,1.116,1.116,0,1,1,.04,2.231A1.39,1.39,0,0,1,7.487,70.233Zm83.8-12.079v-56a2.145,2.145,0,1,1,4.291,0v56a8.244,8.244,0,0,0,.364,2.4,7.084,7.084,0,0,0-1.89-.336,2.949,2.949,0,0,0-2.288,1.306A12.192,12.192,0,0,1,91.285,58.154Z" transform="translate(-0.23 0)" fill="#fff" stroke="rgba(0,0,0,0)" stroke-width="1"></path>
      </g>
      <path id="Trazado_301" data-name="Trazado 301" d="M49.018.279h.013l-.013.006" transform="translate(-16.702 -0.094)" fill="#fff"></path>
    </g>
  </g>
</svg>
