<svg xmlns="http://www.w3.org/2000/svg" width="108" height="35.056" viewBox="0 0 108 35.056">
  <g id="Logo_SomosGH_Azul" transform="translate(-2 -4.51)">
    <g id="Grupo_7196" data-name="Grupo 7196" transform="translate(2 4.51)">
      <path id="Trazado_53108" data-name="Trazado 53108" d="M194.963,17.492,190.1,26.1q-.124.18-.248.354a3.679,3.679,0,0,1-.564.623c-.219.193-.594.283-.705-.087a1.425,1.425,0,0,1-.042-.571,12.2,12.2,0,0,1,.262-1.446q1.327-5.389,2.72-10.723.191-.736.361-1.5a13.643,13.643,0,0,0,.413-3.4c-.04-1.29-.724-2.347-2.121-2.151-1.757.248-3.246,1.819-4.269,3.2a32.756,32.756,0,0,0-2.772,4.522,67.9,67.9,0,0,0-3.326,7.579.012.012,0,0,1-.017.007h0s-.012-.009-.009-.017q.973-3.991,1.694-6.765.517-1.988.866-3.463a11.84,11.84,0,0,0,.3-2.861,3.4,3.4,0,0,0-.13-.91,1.742,1.742,0,0,0-2.17-1.257A5.822,5.822,0,0,0,177.449,9a18.319,18.319,0,0,0-2.392,3.128q-.9,1.447-1.557,2.715a65.917,65.917,0,0,0-3.378,7.678s0,.007-.012,0-.007,0-.007-.009q1.2-4.812,2.5-9.959.343-1.352.509-2.465a7.067,7.067,0,0,0,.042-1.783,2.3,2.3,0,0,0-.847-1.51,3.2,3.2,0,0,0-2.71-.21h0a6.026,6.026,0,0,0-3.333,2.739h0c-.4.665-2.588,5.074-2.93,5.965l-.1.731c.222-.408,2.658-5.225,2.835-5.541.231-.41.54-.944.807-1.314a3.687,3.687,0,0,1,2.7-1.585h0c1.465-.073,1.479,1.163,1.472,1.6a9.952,9.952,0,0,1-.217,1.366q-.18.892-.446,1.925-2.017,7.865-4.255,16.837v0a.021.021,0,0,0,.021.021h2.163a.073.073,0,0,0,.076-.057q1.412-4.476,3-8.487a61.564,61.564,0,0,1,3.272-6.97,22.832,22.832,0,0,1,1.245-2.007,8.986,8.986,0,0,1,1.741-1.929,2.73,2.73,0,0,1,1.595-.7c1.094-.024,1.033,1.526.9,2.26q-.407,2.261-.979,4.519-1.684,6.638-3.4,13.341v.007a.027.027,0,0,0,.028.028h2.182a.037.037,0,0,0,.035-.026,94.358,94.358,0,0,1,5.357-13.676,39.485,39.485,0,0,1,2.062-3.618,7.434,7.434,0,0,1,2.524-2.548,2.077,2.077,0,0,1,1.118-.274c.578.033.79.7.809,1.212a5.533,5.533,0,0,1-.08,1.109q-.354,2.027-.981,4.517-1,4-2.092,8.282a9.761,9.761,0,0,0-.382,4.05,1.111,1.111,0,0,0,.533.8c1.316.764,2.583-1.066,3.118-2.045.08-.146.16-.3.241-.446l0-.007c.059-.109.116-.217.172-.328.215-.4,4.3-7.652,4.682-8.294l-.125-.55Z" transform="translate(-125.199 -5.95)" fill="#162d60"/>
      <path id="Trazado_53109" data-name="Trazado 53109" d="M12.652,16.667a13.019,13.019,0,0,0-2.687-1.05,22.05,22.05,0,0,1-2.748-.929,6.1,6.1,0,0,1-2.156-1.477,3.881,3.881,0,0,1-.887-2.724A4.285,4.285,0,0,1,4.6,8.522,4.117,4.117,0,0,1,5.72,7.138,4.875,4.875,0,0,1,7.345,6.31a6.777,6.777,0,0,1,1.941-.278,5.346,5.346,0,0,1,2.55.578A5.338,5.338,0,0,1,13.6,8.183l1.458-1.076a6.148,6.148,0,0,0-2.453-1.96A8.288,8.288,0,0,0,9.35,4.51,8.688,8.688,0,0,0,6.741,4.9,6.656,6.656,0,0,0,4.557,6.043a5.456,5.456,0,0,0-1.5,1.875,5.769,5.769,0,0,0-.552,2.569,6.417,6.417,0,0,0,.462,2.59A4.989,4.989,0,0,0,4.21,14.809a6.811,6.811,0,0,0,1.762,1.13,21.823,21.823,0,0,0,2.057.788c.724.238,1.422.474,2.078.7a9.534,9.534,0,0,1,1.847.861A4.132,4.132,0,0,1,13.3,19.6a3.8,3.8,0,0,1,.51,2.045,4.41,4.41,0,0,1-.406,1.913,4.361,4.361,0,0,1-1.1,1.446,5.036,5.036,0,0,1-1.623.925A5.949,5.949,0,0,1,8.7,26.26a6.232,6.232,0,0,1-3.015-.722A5.427,5.427,0,0,1,3.623,23.51L2,24.621a7.133,7.133,0,0,0,2.932,2.4,9.944,9.944,0,0,0,3.923.764,7.969,7.969,0,0,0,2.512-.4,6.259,6.259,0,0,0,2.121-1.189,5.737,5.737,0,0,0,1.453-1.925,6.059,6.059,0,0,0,.538-2.618,5.475,5.475,0,0,0-.8-3.177,5.764,5.764,0,0,0-2.024-1.8" transform="translate(-2 -4.51)" fill="#162d60"/>
      <path id="Trazado_53110" data-name="Trazado 53110" d="M90.355,20.133a9.594,9.594,0,0,1-1.9,3.213A8.819,8.819,0,0,1,85.47,25.49a10.309,10.309,0,0,1-7.86,0,8.8,8.8,0,0,1-2.989-2.144,9.555,9.555,0,0,1-1.9-3.213,11.755,11.755,0,0,1-.663-3.977,11.7,11.7,0,0,1,.663-3.977,9.594,9.594,0,0,1,1.9-3.213A8.819,8.819,0,0,1,77.61,6.822a10.309,10.309,0,0,1,7.86,0,8.8,8.8,0,0,1,2.989,2.144,9.594,9.594,0,0,1,1.9,3.213,11.755,11.755,0,0,1,.663,3.977,11.7,11.7,0,0,1-.663,3.977M89.579,7.815A10.364,10.364,0,0,0,86.064,5.4a12.144,12.144,0,0,0-9.053,0A10.387,10.387,0,0,0,73.5,7.815a11.2,11.2,0,0,0-2.283,3.673,12.918,12.918,0,0,0-.823,4.666,12.994,12.994,0,0,0,.823,4.682A11.084,11.084,0,0,0,73.5,24.523a10.172,10.172,0,0,0,3.512,2.4,12.342,12.342,0,0,0,9.058,0,10.215,10.215,0,0,0,3.512-2.4,11.17,11.17,0,0,0,2.283-3.687,12.994,12.994,0,0,0,.823-4.682,12.859,12.859,0,0,0-.823-4.666,11.164,11.164,0,0,0-2.283-3.673" transform="translate(-54.258 -4.518)" fill="#162d60"/>
      <path id="Trazado_53111" data-name="Trazado 53111" d="M316.565,20.133a9.6,9.6,0,0,1-1.9,3.213,8.819,8.819,0,0,1-2.989,2.144,10.309,10.309,0,0,1-7.86,0,8.8,8.8,0,0,1-2.989-2.144,9.555,9.555,0,0,1-1.9-3.213,11.755,11.755,0,0,1-.663-3.977,11.7,11.7,0,0,1,.663-3.977,9.594,9.594,0,0,1,1.9-3.213,8.805,8.805,0,0,1,2.991-2.144,10.309,10.309,0,0,1,7.86,0,8.8,8.8,0,0,1,2.989,2.144,9.556,9.556,0,0,1,1.9,3.213,11.755,11.755,0,0,1,.663,3.977,11.7,11.7,0,0,1-.663,3.977m-.778-12.318a10.364,10.364,0,0,0-3.515-2.42,12.144,12.144,0,0,0-9.053,0,10.387,10.387,0,0,0-3.515,2.42,11.2,11.2,0,0,0-2.283,3.673,12.868,12.868,0,0,0-.823,4.666,13,13,0,0,0,.823,4.682,11.084,11.084,0,0,0,2.283,3.687,10.172,10.172,0,0,0,3.512,2.4,12.342,12.342,0,0,0,9.058,0,10.215,10.215,0,0,0,3.512-2.4,11.171,11.171,0,0,0,2.283-3.687,12.994,12.994,0,0,0,.823-4.682,12.859,12.859,0,0,0-.823-4.666,11.164,11.164,0,0,0-2.283-3.673" transform="translate(-227.11 -4.518)" fill="#162d60"/>
      <path id="Trazado_53112" data-name="Trazado 53112" d="M415.4,18.477a5.764,5.764,0,0,0-2.024-1.8,13.019,13.019,0,0,0-2.687-1.05,22.051,22.051,0,0,1-2.748-.929,6.121,6.121,0,0,1-2.156-1.477,3.881,3.881,0,0,1-.887-2.724,4.315,4.315,0,0,1,.425-1.965,4.111,4.111,0,0,1,1.12-1.385,4.827,4.827,0,0,1,1.625-.826,6.776,6.776,0,0,1,1.941-.278,5.374,5.374,0,0,1,2.55.578,5.338,5.338,0,0,1,1.767,1.573l1.458-1.076a6.149,6.149,0,0,0-2.453-1.96,8.289,8.289,0,0,0-3.258-.637,8.763,8.763,0,0,0-2.609.389,6.655,6.655,0,0,0-2.184,1.144,5.456,5.456,0,0,0-1.5,1.875,5.769,5.769,0,0,0-.552,2.569,6.417,6.417,0,0,0,.462,2.59,5.015,5.015,0,0,0,1.236,1.731,6.811,6.811,0,0,0,1.762,1.13,21.828,21.828,0,0,0,2.057.788c.724.238,1.422.474,2.078.7a9.671,9.671,0,0,1,1.847.859,4.109,4.109,0,0,1,1.347,1.316,3.8,3.8,0,0,1,.509,2.043,4.41,4.41,0,0,1-.406,1.913,4.361,4.361,0,0,1-1.1,1.446,5.037,5.037,0,0,1-1.623.925,5.939,5.939,0,0,1-1.981.328,6.232,6.232,0,0,1-3.015-.722,5.426,5.426,0,0,1-2.062-2.029l-1.623,1.111a7.114,7.114,0,0,0,2.932,2.4,9.944,9.944,0,0,0,3.923.764,7.969,7.969,0,0,0,2.512-.4,6.259,6.259,0,0,0,2.121-1.189,5.784,5.784,0,0,0,1.453-1.922,6.093,6.093,0,0,0,.538-2.618,5.493,5.493,0,0,0-.8-3.177" transform="translate(-308.198 -4.518)" fill="#162d60"/>
    </g>
    <g id="Grupo_7197" data-name="Grupo 7197" transform="translate(20.599 33.587)">
      <path id="Trazado_53113" data-name="Trazado 53113" d="M80.85,130.785v-.016a2.944,2.944,0,0,1,2.982-2.989,3.119,3.119,0,0,1,2.222.785l-.644.769a2.265,2.265,0,0,0-1.618-.618,1.956,1.956,0,0,0-1.875,2.04v.017a1.931,1.931,0,0,0,1.965,2.064,2.366,2.366,0,0,0,1.4-.439v-1.083H83.8v-.885h2.46v2.427a3.682,3.682,0,0,1-2.411.9,2.868,2.868,0,0,1-3-2.972Z" transform="translate(-80.85 -127.78)" fill="#162d60"/>
      <path id="Trazado_53114" data-name="Trazado 53114" d="M110.08,128.2h2.576a2.326,2.326,0,0,1,1.668.578,1.743,1.743,0,0,1,.479,1.248v.017a1.735,1.735,0,0,1-1.37,1.75l1.562,2.189h-1.205l-1.42-2.014H111.1v2.014H110.08V128.2Zm2.5,2.866c.727,0,1.189-.38,1.189-.967v-.017c0-.62-.446-.958-1.2-.958h-1.479v1.941h1.486Z" transform="translate(-103.185 -128.101)" fill="#162d60"/>
      <path id="Trazado_53115" data-name="Trazado 53115" d="M135.7,131.528V128.2h1.017v3.286c0,1.073.554,1.644,1.462,1.644s1.453-.538,1.453-1.6V128.2h1.017v3.279a2.308,2.308,0,0,1-2.486,2.592,2.273,2.273,0,0,1-2.46-2.543Z" transform="translate(-122.762 -128.101)" fill="#162d60"/>
      <path id="Trazado_53116" data-name="Trazado 53116" d="M163.272,128.2h2.279a1.94,1.94,0,0,1,2.2,1.932v.017c0,1.3-1.04,1.974-2.312,1.974h-1.149v1.859H163.27V128.2Zm2.2,3.005c.769,0,1.248-.429,1.248-1.033v-.017c0-.677-.488-1.033-1.248-1.033h-1.182v2.08h1.182Z" transform="translate(-143.829 -128.101)" fill="#162d60"/>
      <path id="Trazado_53117" data-name="Trazado 53117" d="M186.27,130.785v-.016a3.023,3.023,0,0,1,6.046-.017v.017a3.023,3.023,0,0,1-6.046.016Zm4.979,0v-.016a1.982,1.982,0,0,0-1.965-2.057,1.953,1.953,0,0,0-1.948,2.04v.017a1.974,1.974,0,0,0,1.965,2.047A1.946,1.946,0,0,0,191.249,130.785Z" transform="translate(-161.404 -127.78)" fill="#162d60"/>
      <path id="Trazado_53118" data-name="Trazado 53118" d="M229.01,128.2h1.017v2.4h2.757v-2.4H233.8v5.779h-1.014v-2.437h-2.757v2.437H229.01Z" transform="translate(-194.062 -128.101)" fill="#162d60"/>
      <path id="Trazado_53119" data-name="Trazado 53119" d="M255.22,130.785v-.016a3.023,3.023,0,0,1,6.046-.017v.017a3.023,3.023,0,0,1-6.046.016Zm4.979,0v-.016a1.982,1.982,0,0,0-1.965-2.057,1.953,1.953,0,0,0-1.948,2.04v.017a1.972,1.972,0,0,0,1.965,2.047A1.945,1.945,0,0,0,260.2,130.785Z" transform="translate(-214.09 -127.78)" fill="#162d60"/>
      <path id="Trazado_53120" data-name="Trazado 53120" d="M285.513,129.141H283.68V128.2h4.689v.941h-1.833v4.838h-1.024Z" transform="translate(-235.836 -128.101)" fill="#162d60"/>
      <path id="Trazado_53121" data-name="Trazado 53121" d="M308.42,131.528V128.2h1.014v3.286c0,1.073.554,1.644,1.462,1.644s1.453-.538,1.453-1.6V128.2h1.017v3.279a2.308,2.308,0,0,1-2.486,2.592A2.273,2.273,0,0,1,308.42,131.528Z" transform="translate(-254.741 -128.101)" fill="#162d60"/>
      <path id="Trazado_53122" data-name="Trazado 53122" d="M334.35,132.854l.611-.727a2.676,2.676,0,0,0,1.826.75c.627,0,1.024-.3,1.024-.727v-.017c0-.413-.231-.637-1.3-.885-1.231-.3-1.925-.66-1.925-1.727v-.017a1.769,1.769,0,0,1,1.974-1.677,3.2,3.2,0,0,1,2.1.727l-.545.769a2.62,2.62,0,0,0-1.569-.594c-.594,0-.941.3-.941.686v.017c0,.446.264.644,1.38.908,1.222.3,1.849.736,1.849,1.694v.017c0,1.083-.852,1.727-2.064,1.727a3.552,3.552,0,0,1-2.411-.925Z" transform="translate(-274.554 -127.818)" fill="#162d60"/>
      <path id="Trazado_53123" data-name="Trazado 53123" d="M359.015,128.03h.941l2.543,5.822h-1.073l-.587-1.4H358.1l-.594,1.4h-1.04l2.543-5.822Zm1.453,3.524-1-2.312-.991,2.312Z" transform="translate(-291.457 -127.971)" fill="#162d60"/>
    </g>
  </g>
</svg>
