<svg id="Componente_47_7" data-name="Componente 47 – 7" xmlns="http://www.w3.org/2000/svg" xmlns:xlink="http://www.w3.org/1999/xlink" viewBox="0 0 37.545 33">

  <g id="Grupo_6965" data-name="Grupo 6965" clip-path="url(#clip-path)">
    <path id="Trazado_53007" data-name="Trazado 53007" d="M32.122,4.524a.709.709,0,1,0,0-1.416,3.256,3.256,0,0,0-3.337,3.147,3.853,3.853,0,0,0,3.963,3.737,4.693,4.693,0,0,0,4.8-4.523A5.628,5.628,0,0,0,31.746,0H5.84A5.7,5.7,0,0,0,0,5.508a4.693,4.693,0,0,0,4.8,4.523A3.853,3.853,0,0,0,8.76,6.294,3.256,3.256,0,0,0,5.423,3.148a.709.709,0,1,0,0,1.416A1.818,1.818,0,0,1,7.3,6.334a2.442,2.442,0,0,1-2.5,2.36A3.256,3.256,0,0,1,1.46,5.547,4.243,4.243,0,0,1,5.8,1.456a5.438,5.438,0,0,1,5.59,5.271c0,3.54-2.42,5.349-7.175,5.349a.709.709,0,1,0,0,1.416H7.592v18.8a.752.752,0,0,0,1.5,0V13.413h2.712v18.8a.752.752,0,0,0,1.5,0v-18.8h2.712v18.8a.752.752,0,0,0,1.5,0v-18.8h2.712v18.8a.752.752,0,0,0,1.5,0v-18.8h2.712v18.8a.752.752,0,0,0,1.5,0v-18.8h2.712v18.8a.752.752,0,0,0,1.5,0v-18.8H33.5A.709.709,0,1,0,33.5,12c-4.756,0-7.175-1.809-7.175-5.349a5.438,5.438,0,0,1,5.59-5.271,4.243,4.243,0,0,1,4.339,4.091,3.256,3.256,0,0,1-3.337,3.147,2.442,2.442,0,0,1-2.5-2.36,1.578,1.578,0,0,1,1.71-1.731M24.654,6.688a6.045,6.045,0,0,0,2.753,5.349H10.137A6.045,6.045,0,0,0,12.89,6.688,6.549,6.549,0,0,0,10.1,1.417H27.533a6.413,6.413,0,0,0-2.878,5.271" transform="translate(0 -0.001)" fill="#00a79b"/>
  </g>
</svg>
