<svg xmlns="http://www.w3.org/2000/svg" xmlns:xlink="http://www.w3.org/1999/xlink" viewBox="0 0 35.157 35">

  <g id="Grupo_7271" data-name="Grupo 7271" transform="translate(0 0)">
    <g id="Grupo_7260" data-name="Grupo 7260" transform="translate(0 0)" clip-path="url(#clip-path)">
      <path id="Trazado_53416" data-name="Trazado 53416" d="M5.585,20.622a.376.376,0,0,1,.128.292.472.472,0,0,1-.019.126L4.459,24.676a.33.33,0,0,1-.132.17.407.407,0,0,1-.207.069.4.4,0,0,1-.213-.062.424.424,0,0,1-.157-.182l-.89-2.026-.9,2.026a.425.425,0,0,1-.156.182.4.4,0,0,1-.213.062.409.409,0,0,1-.207-.069.329.329,0,0,1-.131-.17L.019,21.039A.473.473,0,0,1,0,20.914a.376.376,0,0,1,.129-.292.414.414,0,0,1,.285-.116.4.4,0,0,1,.226.066.335.335,0,0,1,.138.178l.935,2.835.815-1.956a.425.425,0,0,1,.145-.179.331.331,0,0,1,.213-.06.321.321,0,0,1,.21.06.429.429,0,0,1,.141.179l.771,1.938.928-2.816a.328.328,0,0,1,.141-.178.414.414,0,0,1,.229-.066.409.409,0,0,1,.279.116" transform="translate(0 -12.246)" fill="#00a79b" stroke="#00a79b" stroke-width="0.25"/>
      <path id="Trazado_53417" data-name="Trazado 53417" d="M19.477,24.332a.348.348,0,0,1,.11.254.332.332,0,0,1-.11.257.39.39,0,0,1-.273.1H17.1a.375.375,0,0,1-.383-.383V20.936a.374.374,0,0,1,.383-.382h2.1a.383.383,0,0,1,.273.1.349.349,0,0,1,.11.267.327.327,0,0,1-.107.254.392.392,0,0,1-.276.1H17.5v1.066h1.418a.381.381,0,0,1,.272.1.35.35,0,0,1,.11.266.329.329,0,0,1-.106.254.4.4,0,0,1-.276.1H17.5v1.16h1.7a.37.37,0,0,1,.273.11" transform="translate(-9.986 -12.275)" fill="#00a79b" stroke="#00a79b" stroke-width="0.25"/>
      <path id="Trazado_53418" data-name="Trazado 53418" d="M3.613,42.609a.349.349,0,0,1,.11.267.341.341,0,0,1-.11.26.382.382,0,0,1-.273.1H1.3a.376.376,0,0,1-.383-.383V39.232a.366.366,0,0,1,.113-.273.4.4,0,0,1,.288-.11.372.372,0,0,1,.27.11.363.363,0,0,1,.113.273v3.274H3.34a.382.382,0,0,1,.273.1" transform="translate(-0.549 -23.201)" fill="#00a79b" stroke="#00a79b" stroke-width="0.25"/>
      <path id="Trazado_53419" data-name="Trazado 53419" d="M14.071,42.09a2.111,2.111,0,0,1-.762.818,2.138,2.138,0,0,1-2.189,0,2.089,2.089,0,0,1-.759-.818,2.512,2.512,0,0,1,0-2.277,2.093,2.093,0,0,1,.759-.819,2.141,2.141,0,0,1,2.189,0,2.115,2.115,0,0,1,.762.819,2.486,2.486,0,0,1,0,2.277m-.708-1.9a1.372,1.372,0,0,0-.471-.543,1.255,1.255,0,0,0-1.357,0,1.317,1.317,0,0,0-.464.543,1.847,1.847,0,0,0,0,1.53,1.313,1.313,0,0,0,.464.542,1.2,1.2,0,0,0,.68.2,1.189,1.189,0,0,0,.677-.2,1.367,1.367,0,0,0,.471-.543,1.8,1.8,0,0,0,0-1.524" transform="translate(-6.025 -23.108)" fill="#00a79b" stroke="#00a79b" stroke-width="0.25"/>
      <path id="Trazado_53420" data-name="Trazado 53420" d="M26.459,38.915a.338.338,0,0,1,.116.257.425.425,0,0,1-.038.169l-1.549,3.625a.418.418,0,0,1-.157.182.4.4,0,0,1-.213.062.393.393,0,0,1-.2-.066.385.385,0,0,1-.141-.173l-1.549-3.637a.35.35,0,0,1-.031-.157.335.335,0,0,1,.125-.273.4.4,0,0,1,.257-.1.354.354,0,0,1,.2.063.394.394,0,0,1,.144.182l1.26,2.966,1.154-2.966a.407.407,0,0,1,.145-.176.359.359,0,0,1,.2-.062.39.39,0,0,1,.272.106" transform="translate(-13.556 -23.172)" fill="#00a79b" stroke="#00a79b" stroke-width="0.25"/>
      <path id="Trazado_53421" data-name="Trazado 53421" d="M37.834,42.628a.348.348,0,0,1,.11.254.332.332,0,0,1-.11.257.39.39,0,0,1-.273.1h-2.1a.375.375,0,0,1-.383-.383V39.232a.374.374,0,0,1,.383-.382h2.1a.383.383,0,0,1,.273.1.35.35,0,0,1,.11.267.326.326,0,0,1-.107.254.392.392,0,0,1-.276.1h-1.7v1.066H37.28a.381.381,0,0,1,.272.1.35.35,0,0,1,.11.266.329.329,0,0,1-.106.254.4.4,0,0,1-.276.1H35.862v1.16h1.7a.37.37,0,0,1,.273.11" transform="translate(-20.948 -23.201)" fill="#00a79b" stroke="#00a79b" stroke-width="0.25"/>
      <path id="Trazado_53422" data-name="Trazado 53422" d="M4.356,60.386a2.111,2.111,0,0,1-.762.818,2.034,2.034,0,0,1-1.094.3,2.035,2.035,0,0,1-1.094-.3,2.089,2.089,0,0,1-.759-.818,2.512,2.512,0,0,1,0-2.277,2.093,2.093,0,0,1,.759-.819,2.038,2.038,0,0,1,1.094-.3,2.037,2.037,0,0,1,1.094.3,2.115,2.115,0,0,1,.762.819,2.486,2.486,0,0,1,0,2.277m-.708-1.9a1.372,1.372,0,0,0-.471-.543,1.192,1.192,0,0,0-.677-.2,1.2,1.2,0,0,0-.68.2,1.317,1.317,0,0,0-.464.543,1.847,1.847,0,0,0,0,1.53,1.313,1.313,0,0,0,.464.542,1.2,1.2,0,0,0,.68.2,1.189,1.189,0,0,0,.677-.2,1.367,1.367,0,0,0,.471-.543,1.8,1.8,0,0,0,0-1.524" transform="translate(-0.223 -34.034)" fill="#00a79b" stroke="#00a79b" stroke-width="0.25"/>
      <path id="Trazado_53423" data-name="Trazado 53423" d="M17.236,57.236a.386.386,0,0,1,.1.276v2.27a1.891,1.891,0,0,1-.22.922,1.579,1.579,0,0,1-.615.627,1.786,1.786,0,0,1-.9.226,1.8,1.8,0,0,1-.906-.226,1.574,1.574,0,0,1-.618-.627,1.891,1.891,0,0,1-.22-.922v-2.27a.366.366,0,0,1,.113-.273.4.4,0,0,1,.288-.11.379.379,0,0,1,.377.383v2.27a1.078,1.078,0,0,0,.132.536.922.922,0,0,0,.354.361.962.962,0,0,0,.48.125,1.053,1.053,0,0,0,.5-.125.96.96,0,0,0,.376-.361,1.02,1.02,0,0,0,.141-.536v-2.27a.4.4,0,0,1,.094-.276.326.326,0,0,1,.257-.106.345.345,0,0,1,.263.106" transform="translate(-8.275 -34.118)" fill="#00a79b" stroke="#00a79b" stroke-width="0.25"/>
      <path id="Trazado_53424" data-name="Trazado 53424" d="M29.526,61.053a.328.328,0,0,1,.048.169.323.323,0,0,1-.076.207.354.354,0,0,1-.288.113.568.568,0,0,1-.276-.069,1.1,1.1,0,0,1-.452-1.048.456.456,0,0,0-.147-.357.616.616,0,0,0-.423-.132H26.738v1.216a.41.41,0,0,1-.09.276.3.3,0,0,1-.242.107.489.489,0,0,1-.317-.11.339.339,0,0,1-.135-.273V57.528a.375.375,0,0,1,.383-.382h1.807a1.163,1.163,0,0,1,.614.175,1.3,1.3,0,0,1,.461.483,1.381,1.381,0,0,1,.172.69,1.224,1.224,0,0,1-.169.611,1.34,1.34,0,0,1-.439.473.962.962,0,0,1,.433.74,1.057,1.057,0,0,1,.019.194,2.05,2.05,0,0,0,.05.279.206.206,0,0,0,.113.129.366.366,0,0,1,.128.132m-1.195-1.869a.8.8,0,0,0,.176-.286,1.053,1.053,0,0,0,.069-.385.749.749,0,0,0-.069-.323.661.661,0,0,0-.176-.235.342.342,0,0,0-.22-.088H26.738v1.424h1.374a.311.311,0,0,0,.22-.106" transform="translate(-15.5 -34.127)" fill="#00a79b" stroke="#00a79b" stroke-width="0.25"/>
      <path id="Trazado_53425" data-name="Trazado 53425" d="M3.339,75.633a1.413,1.413,0,0,1,.464.514,1.5,1.5,0,0,1,0,1.408,1.406,1.406,0,0,1-.464.517,1.08,1.08,0,0,1-.608.191H1.64v1.185a.383.383,0,0,1-.1.276.344.344,0,0,1-.263.107.331.331,0,0,1-.257-.11.388.388,0,0,1-.1-.273V75.824a.374.374,0,0,1,.383-.382h1.43a1.083,1.083,0,0,1,.608.191m-.373,1.815a.742.742,0,0,0,.189-.26.821.821,0,0,0,0-.671.708.708,0,0,0-.189-.257.365.365,0,0,0-.235-.1H1.64v1.386H2.731a.359.359,0,0,0,.235-.1" transform="translate(-0.549 -45.053)" fill="#00a79b" stroke="#00a79b" stroke-width="0.25"/>
      <path id="Trazado_53426" data-name="Trazado 53426" d="M14.122,79.2a.349.349,0,0,1,.11.267.341.341,0,0,1-.11.26.382.382,0,0,1-.273.1H11.811a.376.376,0,0,1-.383-.383V75.824a.366.366,0,0,1,.113-.273.4.4,0,0,1,.288-.11.372.372,0,0,1,.27.11.363.363,0,0,1,.113.273V79.1h1.637a.382.382,0,0,1,.273.1" transform="translate(-6.825 -45.053)" fill="#00a79b" stroke="#00a79b" stroke-width="0.25"/>
      <path id="Trazado_53427" data-name="Trazado 53427" d="M24.169,79.454a.353.353,0,0,1-.106.266.339.339,0,0,1-.244.1.331.331,0,0,1-.2-.069.444.444,0,0,1-.141-.189l-.326-.759H21.279l-.327.765a.39.39,0,0,1-.135.185.333.333,0,0,1-.2.066.3.3,0,0,1-.333-.326.418.418,0,0,1,.019-.119l1.562-3.75a.406.406,0,0,1,.151-.195.326.326,0,0,1,.226-.056.368.368,0,0,1,.21.066.375.375,0,0,1,.141.185L24.138,79.3a.42.42,0,0,1,.031.151m-2.584-1.367H22.84l-.633-1.467Z" transform="translate(-12.116 -45.013)" fill="#00a79b" stroke="#00a79b" stroke-width="0.25"/>
      <path id="Trazado_53428" data-name="Trazado 53428" d="M35.943,75.541a.353.353,0,0,1,.094.251v3.656a.376.376,0,0,1-.383.383.539.539,0,0,1-.172-.028.246.246,0,0,1-.122-.079l-2.3-2.922V79.48a.344.344,0,0,1-.1.251.336.336,0,0,1-.254.1.319.319,0,0,1-.245-.1.352.352,0,0,1-.094-.251V75.824a.375.375,0,0,1,.383-.383.493.493,0,0,1,.185.037.3.3,0,0,1,.134.1l2.284,2.91v-2.7a.345.345,0,0,1,.1-.251.331.331,0,0,1,.248-.1.32.32,0,0,1,.244.1" transform="translate(-19.33 -45.053)" fill="#00a79b" stroke="#00a79b" stroke-width="0.25"/>
      <path id="Trazado_53429" data-name="Trazado 53429" d="M47.688,79.22a.348.348,0,0,1,.11.254.332.332,0,0,1-.11.257.39.39,0,0,1-.273.1h-2.1a.374.374,0,0,1-.383-.383V75.824a.374.374,0,0,1,.383-.382h2.1a.383.383,0,0,1,.273.1.35.35,0,0,1,.11.267.326.326,0,0,1-.107.254.392.392,0,0,1-.276.1h-1.7v1.066h1.418a.381.381,0,0,1,.272.1.35.35,0,0,1,.11.266.329.329,0,0,1-.106.254.4.4,0,0,1-.276.1H45.716v1.16h1.7a.37.37,0,0,1,.273.11" transform="translate(-26.833 -45.053)" fill="#00a79b" stroke="#00a79b" stroke-width="0.25"/>
      <path id="Trazado_53430" data-name="Trazado 53430" d="M57.7,75.541a.345.345,0,0,1,.107.263.335.335,0,0,1-.107.261.4.4,0,0,1-.276.1h-.984v3.286a.356.356,0,0,1-.12.273.418.418,0,0,1-.295.11.4.4,0,0,1-.288-.11.365.365,0,0,1-.113-.273V76.162h-.984a.387.387,0,0,1-.276-.1.344.344,0,0,1-.106-.263.334.334,0,0,1,.11-.257.39.39,0,0,1,.273-.1h2.784a.388.388,0,0,1,.276.1" transform="translate(-32.402 -45.053)" fill="#00a79b" stroke="#00a79b" stroke-width="0.25"/>
      <path id="Trazado_53431" data-name="Trazado 53431" d="M56.819,35.914a6.763,6.763,0,0,0,3.974-5.961c.006-2.961-2.061-7.432-11.938-11.915a.378.378,0,1,0-.313.689c4.3,1.95,11.5,6,11.493,11.224a6.042,6.042,0,0,1-3.319,5.167c-.051-.344-.11-.684-.176-1.021a.37.37,0,0,0-.036-.172c-.16-.794-.356-1.565-.576-2.3a13.9,13.9,0,0,1,.929-5.361.378.378,0,0,0-.7-.276,17.454,17.454,0,0,0-.921,3.583c-.16-.423-.324-.835-.489-1.223a37.63,37.63,0,0,0-3.932-7.031.378.378,0,0,0-.663.113,22.436,22.436,0,0,0-.879,5.385c-.152,3.943.914,7.042,3.083,8.961a3.783,3.783,0,0,0,3.738.437,15.225,15.225,0,0,1-.632,6.415.378.378,0,0,0,.237.48.383.383,0,0,0,.1.019.377.377,0,0,0,.381-.257,16.153,16.153,0,0,0,.646-6.953m-3.967-.708c-4.02-3.557-2.754-10.478-2.19-12.784a35.724,35.724,0,0,1,4.907,10.792,16.983,16.983,0,0,0-3.024-1.767.378.378,0,1,0-.193.732A22.782,22.782,0,0,1,55.8,34.3c.074.379.139.76.192,1.144a3.127,3.127,0,0,1-3.145-.234" transform="translate(-28.856 -10.752)" fill="#00a79b" stroke="#00a79b" stroke-width="0.25"/>
      <path id="Trazado_53432" data-name="Trazado 53432" d="M28.785,2.774c-.023-.017-.046-.036-.066-.05a.363.363,0,0,0-.055-.023A19.539,19.539,0,0,0,5.426,5.248a.378.378,0,1,0,.516.554,18.673,18.673,0,0,1,8.515-4.554,3.589,3.589,0,0,0,.794,2.688,1.528,1.528,0,0,0,1.48.234,3.866,3.866,0,0,1,2.486.613,11.108,11.108,0,0,0,4.122,1.2,9.515,9.515,0,0,0,3.031-.323c1.744-.46,2.68-1.019,2.872-1.705a18.8,18.8,0,0,1,1.177,30.364.378.378,0,1,0,.469.594,19.556,19.556,0,0,0-2.1-32.144m-.258.957c-.017.1-.209.638-2.351,1.2A8.9,8.9,0,0,1,19.531,4.1a4.395,4.395,0,0,0-3.011-.652.765.765,0,0,1-.785-.088c-.5-.421-.546-1.661-.514-2.271A18.977,18.977,0,0,1,19.912.793a18.683,18.683,0,0,1,8.434,2.6c.073.064.2.2.18.338" transform="translate(-3.168 0)" fill="#00a79b" stroke="#00a79b" stroke-width="0.25"/>
    </g>
  </g>
</svg>
