<svg id="Grupo_7340" data-name="Grupo 7340" xmlns="http://www.w3.org/2000/svg" xmlns:xlink="http://www.w3.org/1999/xlink" width="32.896" height="32.069" viewBox="0 0 32.896 32.069">
  <defs>
    <clipPath id="clip-path">
      <rect id="Rectángulo_1498" data-name="Rectángulo 1498" width="32.896" height="32.069" fill="#00a79b"/>
    </clipPath>
  </defs>
  <g id="Grupo_7339" data-name="Grupo 7339" clip-path="url(#clip-path)">
    <path id="Trazado_53474" data-name="Trazado 53474" d="M16.448,32.069a16.711,16.711,0,0,1-6.4-1.26,16.422,16.422,0,0,1-5.228-3.436,15.965,15.965,0,0,1-3.525-5.1,15.713,15.713,0,0,1,0-12.483A15.964,15.964,0,0,1,4.818,4.7,16.422,16.422,0,0,1,10.046,1.26a16.893,16.893,0,0,1,12.805,0A16.423,16.423,0,0,1,28.079,4.7a15.964,15.964,0,0,1,3.525,5.1,15.712,15.712,0,0,1,0,12.483,15.964,15.964,0,0,1-3.525,5.1,16.422,16.422,0,0,1-5.228,3.436,16.711,16.711,0,0,1-6.4,1.26m0-30.845a15.434,15.434,0,0,0-5.913,1.164A15.17,15.17,0,0,0,5.705,5.562,14.747,14.747,0,0,0,2.449,10.27a14.517,14.517,0,0,0,0,11.529,14.747,14.747,0,0,0,3.256,4.708,15.171,15.171,0,0,0,4.829,3.174,15.608,15.608,0,0,0,11.827,0,15.171,15.171,0,0,0,4.829-3.174A14.747,14.747,0,0,0,30.447,21.8a14.517,14.517,0,0,0,0-11.529,14.747,14.747,0,0,0-3.256-4.708,15.17,15.17,0,0,0-4.829-3.174,15.435,15.435,0,0,0-5.913-1.164" transform="translate(0)" fill="#00a79b"/>
    <path id="Trazado_53475" data-name="Trazado 53475" d="M322.327,226.074l-10.068,7.076a1.767,1.767,0,0,1-2.8-1.395V217.6a1.767,1.767,0,0,1,2.8-1.395l10.068,7.076a1.694,1.694,0,0,1,0,2.789" transform="translate(-298.823 -208.645)" fill="#00a79b"/>
  </g>
</svg>
